<svg id="Capa_1" enable-background="new 0 0 504.5 504.5" height="512" viewBox="0 0 504.5 504.5" width="512" xmlns="http://www.w3.org/2000/svg"><g><path d="m334.75 285v196.592l-24.87 8.29c-3.93 1.31-6.053 5.557-4.744 9.487 1.31 3.93 5.559 6.054 9.487 4.744l29.998-10c3.063-1.021 5.128-3.887 5.128-7.115v-201.998z" fill="#fff0d3"/><path d="m453.589 461.492-42.674-67.502c-.762-1.204-1.165-2.583-1.165-3.99v-105h-15v105c0 4.252 1.208 8.407 3.489 12.01l41.511 65.662v29.328c0 4.142 3.358 7.5 7.5 7.5s7.5-3.358 7.5-7.5v-31.5c0-1.419-.402-2.808-1.161-4.008z" fill="#ffd9d4"/><path d="m169.75 285v196.592l24.87 8.29c3.93 1.31 6.053 5.557 4.744 9.487-1.31 3.93-5.559 6.054-9.487 4.744l-29.998-10c-3.063-1.021-5.128-3.887-5.128-7.115v-201.998z" fill="#49c9ff"/><path d="m50.911 461.492 42.674-67.502c.762-1.204 1.165-2.583 1.165-3.99v-105h15v105c0 4.252-1.208 8.407-3.489 12.01l-41.511 65.662v29.328c0 4.142-3.358 7.5-7.5 7.5s-7.5-3.358-7.5-7.5v-31.5c0-1.419.402-2.808 1.161-4.008z" fill="#7dd9ff"/><path d="m244.75 200h-15c0-4.136-3.364-7.5-7.5-7.5h-90v-15h90c12.407 0 22.5 10.093 22.5 22.5z" fill="#ffb4a9"/><path d="m274.75 200h-15c0-12.407 10.094-22.5 22.5-22.5h90v15h-90c-4.136 0-7.5 3.364-7.5 7.5z" fill="#fff0d3"/><path d="m132.25 225v105c24.853 0 45-20.147 45-45v-30z" fill="#49c9ff"/><path d="m87.25 255v30c0 24.853 20.147 45 45 45 8.284 0 15-20.147 15-45v-60z" fill="#7dd9ff"/><path d="m157.25 165h-30v67.5l20 22.5h30v-70c0-11.046-8.954-20-20-20z" fill="#ff6b8a"/><path d="m127.25 165h-20c-11.046 0-20 8.954-20 20v70h60v-70c0-11.046-8.954-20-20-20z" fill="#ff8d7e"/><circle cx="132.253" cy="22.5" fill="#80bf63" r="22.5"/><path d="m132.25 45v59.985l42.424-30c-6.183-17.468-22.838-29.985-42.424-29.985z" fill="#40b862"/><path d="m132.25 74.985v60.015c24.853 0 45-20.147 45-45 0-5.267-.913-10.318-2.576-15.015z" fill="#ffb4a9"/><path d="m132.25 45c-19.586 0-36.241 12.517-42.424 29.985l28.283 30 28.283-30c-2.062-17.468-7.613-29.985-14.142-29.985z" fill="#80bf63"/><path d="m89.826 74.985c-1.663 4.697-2.576 9.748-2.576 15.015 0 24.853 20.147 45 45 45 8.284 0 15-20.147 15-45 0-5.267-.304-10.318-.859-15.015z" fill="#ffd9d4"/><path d="m405.783 60h-33.533v75c24.853 0 45-20.147 45-45 0-11.528-4.34-22.038-11.467-30z" fill="#ffd9d4"/><path d="m387.25 90c0-11.528-1.447-22.038-3.823-30h-44.71c-7.128 7.962-11.468 18.472-11.468 30 0 24.853 20.147 45 45 45 8.285 0 15.001-20.147 15.001-45z" fill="#fff0d3"/><path d="m372.25 45 13.864 27.812c7.658-2.481 14.421-6.951 19.668-12.812-8.239-9.204-20.207-15-33.532-15z" fill="#ff6b8a"/><path d="m372.25 45c-13.325 0-25.293 5.796-33.532 15 8.24 9.203 20.207 15 33.532 15 4.84 0 9.496-.773 13.864-2.188-2.251-16.324-7.609-27.812-13.864-27.812z" fill="#ff8d7e"/><path d="m388.043 10c-2.811-5.907-8.816-10-15.793-10s-12.982 4.093-15.793 10c-9.665 0-17.5 7.835-17.5 17.5s7.835 17.5 17.5 17.5h31.586c9.665 0 17.5-7.835 17.5-17.5s-7.835-17.5-17.5-17.5z" fill="#ff8d7e"/><path d="m417.25 185c0-11.046-8.954-20-20-20h-30l-10 120h60z" fill="#7dd9ff"/><path d="m372.25 265 30 80h30v-30z" fill="#7dd9ff"/><path d="m342.251 269.403-30.001 45.597v30h90v-75.596z" fill="#a8e5ff"/><path d="m387.25 185c0-11.046-8.954-20-20-20h-20c-11.046 0-20 8.954-20 20v100h60z" fill="#a8e5ff"/><path d="m417.25 255h-30l15 44.403c6.635 9.43 17.593 15.597 29.999 15.597v-20.335c.001-15.21-5.67-29.089-14.999-39.665z" fill="#2dade3"/><path d="m387.25 255h-60c-9.329 10.575-15 24.454-15 39.665v20.335c12.406 0 23.366-6.167 30-15.597 6.635 9.43 17.594 15.597 30 15.597s23.365-6.167 30-15.596v-4.738c0-15.211-5.671-29.09-15-39.666z" fill="#49c9ff"/><path d="m266.75.061c-5.595 0-10.675 2.156-14.5 5.658l-20 15.842 20 43.5s36-16.209 36-43.5c0-11.874-9.626-21.5-21.5-21.5z" fill="#eb1b00"/><path d="m237.75.061c-11.874 0-21.5 9.626-21.5 21.5 0 27.291 36 43.5 36 43.5v-59.342c-3.825-3.502-8.904-5.658-14.5-5.658z" fill="#ff4128"/><path d="m222.25 222.5h-55c-15.164 0-27.5-12.336-27.5-27.5 0-4.142 3.358-7.5 7.5-7.5s7.5 3.358 7.5 7.5c0 6.893 5.607 12.5 12.5 12.5h55c4.136 0 7.5-3.364 7.5-7.5 0-4.142 3.358-7.5 7.5-7.5s7.5 3.358 7.5 7.5c0 12.407-10.093 22.5-22.5 22.5z" fill="#ffb4a9"/><path d="m337.25 222.5h-55c-12.406 0-22.5-10.093-22.5-22.5 0-4.142 3.357-7.5 7.5-7.5s7.5 3.358 7.5 7.5c0 4.136 3.364 7.5 7.5 7.5h55c6.893 0 12.5-5.607 12.5-12.5 0-4.142 3.357-7.5 7.5-7.5s7.5 3.358 7.5 7.5c0 15.164-12.337 27.5-27.5 27.5z" fill="#fff0d3"/></g></svg>