<?xml version="1.0" encoding="iso-8859-1"?>
<!-- Generator: Adobe Illustrator 19.0.0, SVG Export Plug-In . SVG Version: 6.00 Build 0)  -->
<svg version="1.1" id="Capa_1" xmlns="http://www.w3.org/2000/svg" xmlns:xlink="http://www.w3.org/1999/xlink" x="0px" y="0px"
	 viewBox="0 0 512 512" style="enable-background:new 0 0 512 512;" xml:space="preserve">
<path style="fill:#3FACC9;" d="M411.407,255.666c0,2.476-0.063,4.942-0.167,7.387c-1.975,42.265-20.793,80.121-49.903,107.016
	c-3.897,3.605-7.993,7.022-12.246,10.208c-15.986,12.016-34.366,21.012-54.281,26.164c-12.497,3.229-25.61,4.953-39.12,4.953
	c-13.542,0-26.686-1.724-39.214-4.984c-19.706-5.099-37.887-13.97-53.748-25.798c-4.274-3.176-8.369-6.572-12.288-10.177
	c-29.34-26.905-48.325-64.928-50.311-107.381c-0.104-2.445-0.167-4.911-0.167-7.387c0-2.779,0.073-5.538,0.219-8.286
	c2.236-42.599,21.597-80.674,51.324-107.444c3.96-3.573,8.108-6.948,12.413-10.093c15.589-11.389,33.363-19.947,52.588-24.92
	c12.518-3.25,25.652-4.974,39.183-4.974c13.5,0,26.592,1.714,39.078,4.942c19.445,5.026,37.406,13.709,53.132,25.286
	c4.294,3.156,8.432,6.541,12.371,10.125c29.507,26.759,48.691,64.677,50.917,107.078
	C411.334,250.128,411.407,252.886,411.407,255.666z"/>
<path style="fill:#369AB2;" d="M254.501,411.38c-85.449-0.637-154.536-70.1-154.536-155.707s69.087-155.08,154.536-155.717
	c-50.206,1.076-90.705,70.382-90.705,155.717C163.796,341.008,204.295,410.303,254.501,411.38z"/>
<path style="fill:#3D8299;" d="M411.24,263.053c0.104-2.445,0.167-4.911,0.167-7.387c0-2.779-0.073-5.538-0.219-8.286h-55.901
	c-0.982-32.966-7.868-64.145-19.758-90.141c8.714-4.848,17-10.501,24.743-16.937c-3.939-3.584-8.077-6.969-12.371-10.125
	c-6.175,4.9-12.706,9.278-19.529,13.103c-0.324-0.564-0.627-1.149-0.951-1.703c-9.414-15.945-20.49-28.316-32.652-36.685
	c-12.486-3.229-25.578-4.942-39.078-4.942c-13.531,0-26.665,1.724-39.183,4.974c-12.141,8.369-23.196,20.73-32.6,36.654
	c-0.261,0.428-0.491,0.878-0.742,1.317c-6.719-3.824-13.165-8.181-19.247-13.05c-4.305,3.145-8.453,6.52-12.413,10.093l0.157,0.136
	c7.617,6.342,15.767,11.943,24.314,16.76c-12.006,26.08-18.954,57.416-19.947,90.548h-55.848c-0.146,2.748-0.219,5.506-0.219,8.286
	c0,2.476,0.063,4.942,0.167,7.387h55.88c0.878,32.851,7.596,63.967,19.288,89.984c-8.307,4.733-16.227,10.198-23.635,16.384
	l-1.222,1.014c3.918,3.605,8.014,7.001,12.288,10.177c6.196-5.068,12.779-9.602,19.654-13.562c0.502,0.899,1.003,1.829,1.526,2.717
	c9.383,15.924,20.438,28.274,32.569,36.644c12.528,3.26,25.672,4.984,39.214,4.984c13.51,0,26.623-1.724,39.12-4.953
	c12.141-8.38,23.207-20.73,32.61-36.675c0.596-1.024,1.16-2.079,1.745-3.114c6.98,3.97,13.646,8.526,19.926,13.625
	c4.253-3.187,8.349-6.604,12.246-10.208l-0.773-0.648c-7.628-6.363-15.788-11.964-24.356-16.781
	c11.588-25.944,18.233-56.914,19.1-89.587H411.24L411.24,263.053z M247.394,402.836c-18.62-3.27-36.132-17.543-49.987-41.043
	c-0.366-0.596-0.69-1.233-1.045-1.849c16.06-7.105,33.352-11.358,51.031-12.424V402.836z M247.394,331.826
	c-20.145,1.097-39.851,5.935-58.105,14.116c-10.626-23.875-16.749-52.515-17.606-82.89h75.711L247.394,331.826L247.394,331.826z
	 M247.394,247.38h-75.68c0.972-30.688,7.325-59.568,18.275-83.516c18.055,7.993,37.521,12.716,57.405,13.803V247.38z
	 M247.394,161.972c-17.376-1.055-34.376-5.162-50.196-12.058c0.063-0.125,0.136-0.251,0.209-0.376
	c13.855-23.468,31.346-37.751,49.987-41.022V161.972z M263.067,108.37c18.944,2.978,36.779,17.324,50.854,41.168
	c0.125,0.23,0.251,0.46,0.376,0.69c-16.143,6.927-33.509,10.982-51.23,11.838V108.37L263.067,108.37z M263.067,177.76
	c20.229-0.888,40.05-5.527,58.419-13.562c10.856,23.886,17.157,52.641,18.118,83.182h-76.537V177.76L263.067,177.76z
	 M313.921,361.793c-14.074,23.854-31.91,38.2-50.854,41.178v-55.545c18.034,0.867,35.682,5.047,52.076,12.194
	C314.736,360.341,314.339,361.083,313.921,361.793z M322.196,345.608c-18.578-8.223-38.639-12.977-59.129-13.876v-68.679h76.568
	C338.789,293.281,332.728,321.796,322.196,345.608z"/>
<path style="fill:#FCD2BE;" d="M315.922,78.27l38.306,87.874c17.555,40.27,64.451,58.694,104.734,41.133
	c10.79-4.703,20.001-11.508,27.383-19.723l-0.005-0.011c17.857-19.879,24.956-48.033,17.437-74.687
	c2.742-2.548,4.971-5.729,6.437-9.461c5.188-13.183-1.305-28.08-14.494-33.252c-13.187-5.2-28.097,1.299-33.275,14.505
	l-21.435-32.448l-14.6-22.091L315.922,78.27z"/>
<path style="fill:#FAB998;" d="M486.339,187.542c17.857-19.879,24.956-48.033,17.437-74.687c2.742-2.548,4.971-5.729,6.437-9.461
	c5.188-13.183-1.305-28.08-14.494-33.252c-13.187-5.2-28.097,1.299-33.275,14.505l-21.435-32.448l-17.502,12.269
	C437.666,74.903,493.972,110.984,486.339,187.542z"/>
<path style="fill:#F9CE55;" d="M266.323,57.573c15.258,35.003,56.003,51,90.995,35.746l66.189-28.853l2.564,5.883
	c6.099,13.992,22.387,20.381,36.379,14.281c3.822-9.729,12.945-15.818,22.751-16.255L473.918,42.49
	c-15.253-34.992-56.003-51-90.995-35.746L266.323,57.573z"/>
<path style="fill:#E2A11E;" d="M331.202,29.292l51.721-22.546c34.992-15.253,75.741,0.754,90.995,35.746l11.284,25.885
	c-9.806,0.436-18.929,6.525-22.751,16.255c-13.992,6.099-30.28-0.289-36.379-14.281l-2.564-5.883l-1.309,0.571
	C406.944,30.046,366.195,14.037,331.202,29.292z"/>
<g>
	<path style="fill:#50515B;" d="M409.051,129.804c-3.024,0-5.902-1.76-7.188-4.707l-5.259-12.064
		c-1.729-3.967,0.085-8.586,4.052-10.315c3.969-1.729,8.587,0.086,10.315,4.052l5.259,12.064c1.729,3.967-0.085,8.586-4.052,10.315
		C411.16,129.593,410.096,129.804,409.051,129.804z"/>
	<path style="fill:#50515B;" d="M377.687,143.476c-3.024,0-5.902-1.76-7.188-4.707l-5.259-12.064
		c-1.729-3.967,0.085-8.586,4.052-10.315c3.971-1.73,8.587,0.086,10.315,4.052l5.259,12.064c1.729,3.967-0.085,8.586-4.052,10.315
		C379.795,143.265,378.732,143.476,377.687,143.476z"/>
</g>
<path style="fill:#FFFFFF;" d="M429.491,185.739c-2.872,0-5.638-1.585-7.012-4.328c-1.938-3.869-0.373-8.577,3.496-10.517
	c10.95-5.487,17.07-13.493,18.188-23.797c0.467-4.302,4.332-7.426,8.636-6.945c4.303,0.466,7.413,4.333,6.945,8.636
	c-1.705,15.717-10.954,28.207-26.75,36.12C431.868,185.471,430.67,185.739,429.491,185.739z"/>
<path style="fill:#FCD2BE;" d="M152.562,337.782l24.682,65.686c15.449,41.124-5.372,87.006-46.508,102.46
	c-11.018,4.14-22.368,5.673-33.386,4.917l-0.004-0.011c-26.659-1.829-51.361-17.087-64.529-41.451
	c-3.742,0.08-7.559-0.649-11.209-2.306C8.703,461.23,2.987,446.017,8.85,433.12c5.842-12.917,21.067-18.636,33.98-12.766
	l-7.218-38.214l-4.909-26.021L152.562,337.782z"/>
<path style="fill:#FAB998;" d="M97.344,510.834c-26.659-1.829-51.361-17.087-64.529-41.451c-3.742,0.08-7.559-0.649-11.209-2.306
	C8.702,461.23,2.986,446.017,8.849,433.12c5.842-12.917,21.067-18.636,33.98-12.766l-7.293-18.836l21.18-22.764
	C53.823,396.106,38.547,461.213,97.344,510.834z"/>
<path style="fill:#50515B;" d="M4.163,394.037l11.346,30.2c7.329-6.295,17.925-8.141,27.313-3.88l-6.77-18.021
	c4.94-1.856,8.932-4.153,12.158-6.758c19.233-15.419,11.081-40.897,11.081-40.897c32.675,14.818,93.433-16.458,93.433-16.458
	c-6.303-16.776-18.81-29.411-33.935-36.275c-15.109-6.856-32.853-7.951-49.63-1.649L42.086,310.47
	C8.545,323.072-8.443,360.483,4.163,394.037z"/>
<path style="fill:#393A42;" d="M4.163,394.037l11.346,30.2c7.329-6.295,17.925-8.141,27.313-3.88l-6.77-18.021
	c4.94-1.856,8.932-4.153,12.158-6.758c-19.617-32.569-19.476-80.091,10.144-91.219l-16.268,6.111
	C8.545,323.072-8.443,360.483,4.163,394.037z"/>
<g>
	<path style="fill:#50515B;" d="M107.132,417.786c-3.171,0-6.156-1.938-7.336-5.082l-4.629-12.32
		c-1.522-4.051,0.528-8.57,4.58-10.092c4.052-1.52,8.57,0.528,10.091,4.58l4.629,12.32c1.522,4.051-0.528,8.57-4.58,10.092
		C108.979,417.624,108.048,417.786,107.132,417.786z"/>
	<path style="fill:#50515B;" d="M139.161,405.753c-3.171,0-6.156-1.938-7.337-5.083l-4.628-12.32
		c-1.521-4.051,0.53-8.57,4.581-10.091c4.055-1.52,8.57,0.529,10.092,4.581l4.628,12.32c1.521,4.051-0.53,8.57-4.581,10.091
		C141.007,405.591,140.076,405.753,139.161,405.753z"/>
</g>
<path style="fill:#FFFFFF;" d="M117.127,474.512c-10.29,0-19.678-3.361-27.694-10.009c-3.331-2.763-3.793-7.703-1.03-11.035
	c2.764-3.331,7.704-3.793,11.035-1.03c7.98,6.616,17.946,8.098,29.625,4.409c4.131-1.306,8.529,0.985,9.833,5.112
	c1.304,4.127-0.984,8.529-5.112,9.833C128.034,473.609,122.459,474.512,117.127,474.512z"/>
<g>
</g>
<g>
</g>
<g>
</g>
<g>
</g>
<g>
</g>
<g>
</g>
<g>
</g>
<g>
</g>
<g>
</g>
<g>
</g>
<g>
</g>
<g>
</g>
<g>
</g>
<g>
</g>
<g>
</g>
</svg>
