<svg height="512pt" viewBox="0 -51 512.00042 512" width="512pt" xmlns="http://www.w3.org/2000/svg"><path d="m487.820312 393.808594h-152.617187l-45.128906-78.546875-51.152344-.507813c-5.007813-.050781-9.03125-4.121094-9.03125-9.128906v-66.527344h-31.171875c-4.902344 0-8.941406-3.882812-9.125-8.789062-.796875-21.398438-.144531-77.3125 24.75-116.421875.378906-.601563.769531-1.195313 1.167969-1.789063 7.304687-11.003906 19.792969-21.195312 26.476562-29.308594h185.882813c3.996094 9.871094 6.675781 20.398438 7.808594 31.375 1.054687 10.136719.808593 20.652344-.949219 31.375l-22.566407 131.941407c-.355468 2.125.113282 4.316406 1.320313 6.101562zm0 0" fill="#fecbaa"/><path d="m487.816406 393.816406h-21.023437l-74.335938-110.234375c-1.207031-1.785156-1.671875-3.976562-1.3125-6.105469l22.554688-131.941406c1.761719-10.722656 2.015625-21.242187.957031-31.375-1.140625-10.976562-3.8125-21.5-7.804688-31.371094h21.023438c3.996094 9.871094 6.664062 20.394532 7.804688 31.371094 1.058593 10.132813.804687 20.652344-.957032 31.375l-22.554687 131.941406c-.359375 2.128907.105469 4.320313 1.3125 6.105469zm0 0" fill="#ffae85"/><path d="m434.738281 145.539062-21.484375 125.59375c-.867187 5.078126-6.0625 8.183594-10.945312 6.546876l-61.234375-20.53125c-3.71875-1.25-6.230469-4.734376-6.230469-8.660157v-115.300781h-30.675781c-2.191407 0-4.207031-.773438-5.777344-2.066406-2.050781-1.667969-3.351563-4.214844-3.351563-7.0625v-43.597656h131.871094c8.40625 19.566406 11.613282 41.84375 7.828125 65.078124zm0 0" fill="#c97f4c"/><path d="m469.476562 348.320312c-18.71875 6.46875-99.078124 33.261719-153.671874 35.996094-4.847657.246094-8.640626 4.261719-8.640626 9.113282v6.628906c0 5.042968 4.085938 9.128906 9.128907 9.128906h186.578125c5.347656 0 9.527344-4.566406 9.097656-9.894531-.957031-11.984375-7.019531-32.722657-34.601562-50.039063-2.363282-1.480468-5.257813-1.84375-7.890626-.933594zm0 0" fill="#f80"/><path d="m433.355469 104.226562h-212.046875c-27.316406 0-49.464844-22.148437-49.464844-49.464843v-45.632813c0-5.042968 4.089844-9.128906 9.128906-9.128906h183.875c42.875 0 77.632813 34.757812 77.632813 77.636719v17.460937c.003906 5.039063-4.085938 9.128906-9.125 9.128906zm0 0" fill="#aa6344"/><path d="m298.75 242.539062c0 11.058594-3.90625 20.257813-11.613281 27.328126-8.296875 7.632812-20.671875 12.417968-36.769531 14.226562-5.25.582031-10.035157.746094-13.714844.746094-3.269532 0-5.671875-.125-6.765625-.195313v-15.359375c.21875 0 .421875.011719.636719.03125 8.816406.726563 34.355468.214844 46.261718-10.75 4.46875-4.109375 6.632813-9.351562 6.632813-16.023437 0-4.234375 3.433593-7.667969 7.664062-7.667969 4.234375 0 7.667969 3.433594 7.667969 7.664062zm0 0" fill="#ffae85"/><path d="m248.898438 184.558594c-6.910157 0-13.097657-3.851563-16.152344-10.058594-1.867188-3.796875-.304688-8.390625 3.492187-10.261719 3.800781-1.863281 8.394531-.300781 10.261719 3.496094.355469.722656 1.171875 1.496094 2.398438 1.496094 1.226562 0 2.042968-.773438 2.398437-1.5 1.871094-3.796875 6.464844-5.355469 10.261719-3.488281 3.800781 1.867187 5.363281 6.464843 3.492187 10.261718-3.050781 6.203125-9.242187 10.054688-16.152343 10.054688zm0 0" fill="#aa6344"/><path d="m180.871094 394.699219-12.582032-27.351563c20.207032-20.742187 26.648438-52.695312 13.746094-80.730468l-26.398437-57.378907c-4.246094-9.222656-15.257813-13.167969-24.34375-8.589843-8.652344 4.363281-12.023438 15.0625-7.949219 23.921874l-23.921875-52c-3.183594-6.917968-11.515625-10.207031-18.332031-6.914062-6.609375 3.191406-9.453125 11.140625-6.351563 17.878906l-10.878906-23.640625c-3.183594-6.921875-11.515625-10.210937-18.328125-6.917969-6.609375 3.195313-9.457031 11.140626-6.355469 17.882813l5.515625 11.980469c-3.101562-6.738282-10.988281-9.75-17.714844-6.808594-6.933593 3.035156-9.855468 11.5-6.671874 18.421875l5.367187 11.660156c-3.101563-6.742187-10.988281-9.75-17.714844-6.808593-6.933593 3.03125-9.855469 11.5-6.671875 18.417968l50.144532 108.988282c8.878906 19.292968 25.117187 32.84375 43.804687 38.816406l8.148437 17.714844c1.667969 3.625 5.292969 5.945312 9.285157 5.945312h58.917969c7.453124.003906 12.402343-7.71875 9.285156-14.488281zm0 0" fill="#e89069"/><path d="m142.140625 409.191406h58.921875c7.453125 0 12.398438-7.722656 9.28125-14.492187l-24.96875-54.269531c20.210938-20.746094 26.648438-52.695313 13.75-80.734376l-26.402344-57.375c-4.242187-9.226562-15.257812-13.171874-24.339844-8.589843-8.652343 4.363281-12.027343 15.058593-7.949218 23.921875l-23.925782-52c-3.183593-6.921875-11.515624-10.210938-18.332031-6.917969-6.605469 3.195313-9.453125 11.140625-6.351562 17.882813l-10.875-23.644532c-3.1875-6.917968-11.515625-10.207031-18.332031-6.914062-6.609376 3.191406-9.453126 11.140625-6.351563 17.878906l5.511719 11.984375c-3.101563-6.742187-10.988282-9.75-17.710938-6.808594-6.933594 3.03125-9.859375 11.5-6.671875 18.421875l5.363281 11.65625c-3.101562-6.738281-10.988281-9.75-17.710937-6.808594-6.933594 3.035157-9.855469 11.5-6.671875 18.421876l50.144531 108.988281c8.878907 19.292969 25.117188 32.84375 43.804688 38.816406l20.535156 44.632813c1.667969 3.625 5.292969 5.949218 9.28125 5.949218zm0 0" fill="#fecbaa"/><path d="m76.515625 280.21875c-2.902344 0-5.675781-1.65625-6.96875-4.464844l-33.75-73.355468c-1.769531-3.847657-.085937-8.398438 3.757813-10.167969 3.847656-1.769531 8.394531-.085938 10.167968 3.757812l33.75 73.359375c1.769532 3.84375.085938 8.394532-3.757812 10.164063-1.039063.476562-2.128906.707031-3.199219.707031zm0 0" fill="#ffae85"/><path d="m125.582031 257.640625c-2.902343 0-5.675781-1.65625-6.96875-4.464844l-33.75-73.355469c-1.769531-3.84375-.085937-8.398437 3.757813-10.167968 3.847656-1.765625 8.398437-.085938 10.167968 3.761718l33.753907 73.355469c1.765625 3.84375.085937 8.398438-3.761719 10.167969-1.039062.476562-2.125.703125-3.199219.703125zm0 0" fill="#ffae85"/><path d="m101.046875 268.929688c-2.898437 0-5.675781-1.65625-6.964844-4.464844l-39.265625-85.339844c-1.769531-3.84375-.085937-8.398438 3.757813-10.167969 3.847656-1.765625 8.394531-.085937 10.167969 3.761719l39.265624 85.339844c1.769532 3.84375.085938 8.394531-3.761718 10.164062-1.035156.480469-2.125.707032-3.199219.707032zm0 0" fill="#ffae85"/><path d="m157.300781 261.96875c-2.898437 0-5.675781-1.65625-6.96875-4.464844l-16.863281-36.648437c-1.765625-3.847657-.085938-8.398438 3.761719-10.167969 3.847656-1.769531 8.394531-.085938 10.167969 3.757812l16.859374 36.652344c1.769532 3.84375.085938 8.394532-3.757812 10.164063-1.039062.480469-2.125.707031-3.199219.707031zm0 0" fill="#ffae85"/><g fill="#ffdf46"><path d="m109.191406 77.929688c-4.214844 0-7.640625-3.40625-7.664062-7.625l-.011719-1.910157c-.019531-4.230469 3.394531-7.683593 7.625-7.703125h.042969c4.214844 0 7.640625 3.402344 7.664062 7.625l.011719 1.90625c.019531 4.234375-3.394531 7.683594-7.625 7.707032-.015625 0-.027344 0-.042969 0zm0 0"/><path d="m109.253906 106.0625c-4.214844 0-7.644531-3.40625-7.664062-7.628906l-.007813-1.90625c-.019531-4.234375 3.394531-7.683594 7.628907-7.703125h.035156c4.21875 0 7.644531 3.410156 7.664062 7.628906l.011719 1.910156c.019531 4.230469-3.394531 7.679688-7.628906 7.699219-.011719 0-.027344 0-.039063 0zm0 0"/><path d="m122.332031 91.015625c-4.214843 0-7.640625-3.40625-7.664062-7.625-.023438-4.234375 3.390625-7.683594 7.625-7.707031l1.90625-.007813h.042969c4.214843 0 7.640624 3.40625 7.664062 7.625.019531 4.234375-3.390625 7.683594-7.625 7.703125l-1.910156.011719c-.011719 0-.027344 0-.039063 0zm0 0"/><path d="m94.199219 91.078125c-4.214844 0-7.644531-3.402344-7.664063-7.625-.023437-4.230469 3.390625-7.683594 7.625-7.703125l1.90625-.011719h.042969c4.214844 0 7.640625 3.40625 7.664063 7.625.019531 4.234375-3.394532 7.683594-7.625 7.707031l-1.910157.007813c-.011719 0-.027343 0-.039062 0zm0 0"/><path d="m25.234375 112.925781c-4.214844 0-7.640625-3.40625-7.664063-7.625l-.007812-1.910156c-.023438-4.230469 3.390625-7.683594 7.625-7.703125h.039062c4.214844 0 7.644532 3.402344 7.664063 7.625l.011719 1.90625c.019531 4.234375-3.390625 7.683594-7.625 7.707031-.015625 0-.027344 0-.042969 0zm0 0"/><path d="m25.296875 141.058594c-4.214844 0-7.640625-3.40625-7.664063-7.625l-.007812-1.90625c-.023438-4.234375 3.390625-7.683594 7.625-7.707032h.039062c4.214844 0 7.644532 3.40625 7.664063 7.625l.011719 1.910157c.023437 4.230469-3.390625 7.683593-7.625 7.703125-.011719 0-.027344 0-.042969 0zm0 0"/><path d="m38.375 126.011719c-4.214844 0-7.640625-3.40625-7.664062-7.625-.019532-4.234375 3.390624-7.683594 7.625-7.707031l1.910156-.007813h.039062c4.214844 0 7.640625 3.40625 7.664063 7.625.023437 4.230469-3.390625 7.683594-7.625 7.703125l-1.90625.011719c-.015625 0-.027344 0-.042969 0zm0 0"/><path d="m10.242188 126.074219c-4.214844 0-7.644532-3.402344-7.664063-7.625-.023437-4.230469 3.390625-7.683594 7.625-7.703125l1.90625-.011719h.042969c4.214844 0 7.640625 3.40625 7.664062 7.625.019532 4.234375-3.390625 7.683594-7.625 7.707031l-1.910156.007813c-.011719 0-.027344 0-.039062 0zm0 0"/><path d="m147.605469 112.960938c-4.21875 0-7.644531-3.40625-7.664063-7.628907l-.011718-1.90625c-.019532-4.234375 3.394531-7.683593 7.628906-7.703125h.039062c4.214844 0 7.644532 3.410156 7.664063 7.628906l.007812 1.910157c.019531 4.230469-3.394531 7.679687-7.628906 7.699219-.011719 0-.023437 0-.035156 0zm0 0"/><path d="m147.667969 141.097656c-4.21875 0-7.644531-3.410156-7.664063-7.628906l-.007812-1.910156c-.023438-4.230469 3.394531-7.679688 7.628906-7.699219h.035156c4.21875 0 7.644532 3.40625 7.664063 7.628906l.007812 1.90625c.023438 4.234375-3.394531 7.683594-7.628906 7.703125-.011719 0-.023437 0-.035156 0zm0 0"/><path d="m160.746094 126.046875c-4.21875 0-7.644532-3.40625-7.664063-7.628906-.023437-4.234375 3.394531-7.679688 7.628907-7.699219l1.90625-.011719h.039062c4.214844 0 7.640625 3.410157 7.664062 7.628907.019532 4.234374-3.398437 7.683593-7.628906 7.703124l-1.910156.007813c-.011719 0-.027344 0-.035156 0zm0 0"/><path d="m132.609375 126.109375c-4.21875 0-7.644531-3.40625-7.664063-7.628906-.019531-4.230469 3.394532-7.679688 7.628907-7.699219l1.910156-.007812h.035156c4.21875 0 7.644531 3.40625 7.664063 7.628906.019531 4.230468-3.394532 7.679687-7.628906 7.699218l-1.90625.007813c-.015626 0-.027344 0-.039063 0zm0 0"/></g></svg>