<?xml version="1.0" encoding="utf-8"?>
<!-- Generator: Adobe Illustrator 16.0.0, SVG Export Plug-In . SVG Version: 6.00 Build 0)  -->
<!DOCTYPE svg PUBLIC "-//W3C//DTD SVG 1.1//EN" "http://www.w3.org/Graphics/SVG/1.1/DTD/svg11.dtd">
<svg version="1.1" id="圖層_1" xmlns="http://www.w3.org/2000/svg" xmlns:xlink="http://www.w3.org/1999/xlink" x="0px" y="0px"
	 width="512px" height="512px" viewBox="0 0 512 512" enable-background="new 0 0 512 512" xml:space="preserve">
<g>
	<path fill="#FECBAA" d="M487.82,445.213H335.203l-45.129-78.547l-51.152-0.508c-5.008-0.051-9.031-4.121-9.031-9.129v-66.527
		h-31.172c-4.902,0-8.941-3.883-9.125-8.789c-0.797-21.398-0.145-77.313,24.75-116.422c0.379-0.602,0.77-1.195,1.168-1.789
		c7.305-11.004,19.793-21.195,26.477-29.309h185.883c3.996,9.871,6.676,20.398,7.809,31.375c1.055,10.137,0.809,20.652-0.949,31.375
		l-22.566,131.941c-0.355,2.125,0.113,4.316,1.32,6.102L487.82,445.213z"/>
	<path fill="#FFAE85" d="M487.816,445.221h-21.023l-74.336-110.234c-1.207-1.785-1.672-3.977-1.313-6.105l22.555-131.941
		c1.762-10.723,2.016-21.242,0.957-31.375c-1.141-10.977-3.813-21.5-7.805-31.371h21.023c3.996,9.871,6.664,20.395,7.805,31.371
		c1.059,10.133,0.805,20.652-0.957,31.375l-22.555,131.941c-0.359,2.129,0.105,4.32,1.313,6.105L487.816,445.221z"/>
	<path fill="#C97F4C" d="M434.738,196.944l-21.484,125.594c-0.867,5.078-6.063,8.184-10.945,6.547l-61.234-20.531
		c-3.719-1.25-6.23-4.734-6.23-8.66V184.592h-30.676c-2.191,0-4.207-0.773-5.777-2.066c-2.051-1.668-3.352-4.215-3.352-7.063
		v-43.598H426.91C435.316,151.432,438.523,173.709,434.738,196.944z"/>
	<path fill="#FF8800" d="M469.477,399.725c-18.719,6.469-99.078,33.262-153.672,35.996c-4.848,0.246-8.641,4.262-8.641,9.113v6.629
		c0,5.043,4.086,9.129,9.129,9.129h186.578c5.348,0,9.527-4.566,9.098-9.895c-0.957-11.984-7.02-32.723-34.602-50.039
		C475.004,399.178,472.109,398.815,469.477,399.725z"/>
	<path fill="#AA6344" d="M433.355,155.631H221.309c-27.316,0-49.465-22.148-49.465-49.465V60.533c0-5.043,4.09-9.129,9.129-9.129
		h183.875c42.875,0,77.633,34.758,77.633,77.637v17.461C442.484,151.541,438.395,155.631,433.355,155.631z"/>
	<path fill="#FFAE85" d="M298.75,293.944c0,11.059-3.906,20.258-11.613,27.328c-8.297,7.633-20.672,12.418-36.77,14.227
		c-5.25,0.582-10.035,0.746-13.715,0.746c-3.27,0-5.672-0.125-6.766-0.195V320.69c0.219,0,0.422,0.012,0.637,0.031
		c8.816,0.727,34.355,0.215,46.262-10.75c4.469-4.109,6.633-9.352,6.633-16.023c0-4.234,3.434-7.668,7.664-7.668
		C295.316,286.28,298.75,289.713,298.75,293.944z"/>
	<path fill="#AA6344" d="M248.898,235.963c-6.91,0-13.098-3.852-16.152-10.059c-1.867-3.797-0.305-8.391,3.492-10.262
		c3.801-1.863,8.395-0.301,10.262,3.496c0.355,0.723,1.172,1.496,2.398,1.496s2.043-0.773,2.398-1.5
		c1.871-3.797,6.465-5.355,10.262-3.488c3.801,1.867,5.363,6.465,3.492,10.262C262,232.112,255.809,235.963,248.898,235.963z"/>
	<path fill="#E89069" d="M180.871,446.104l-12.582-27.352c20.207-20.742,26.648-52.695,13.746-80.73l-26.398-57.379
		c-4.246-9.223-15.258-13.168-24.344-8.59c-8.652,4.363-12.023,15.063-7.949,23.922l-23.922-52
		c-3.184-6.918-11.516-10.207-18.332-6.914c-6.609,3.191-9.453,11.141-6.352,17.879l-10.879-23.641
		c-3.184-6.922-11.516-10.211-18.328-6.918c-6.609,3.195-9.457,11.141-6.355,17.883l5.516,11.98
		c-3.102-6.738-10.988-9.75-17.715-6.809c-6.934,3.035-9.855,11.5-6.672,18.422l5.367,11.66c-3.102-6.742-10.988-9.75-17.715-6.809
		c-6.934,3.031-9.855,11.5-6.672,18.418L51.43,398.115c8.879,19.293,25.117,32.844,43.805,38.816l8.148,17.715
		c1.668,3.625,5.293,5.945,9.285,5.945h58.918C179.039,460.596,183.988,452.873,180.871,446.104z"/>
	<path fill="#FECBAA" d="M142.141,460.596h58.922c7.453,0,12.398-7.723,9.281-14.492l-24.969-54.27
		c20.211-20.746,26.648-52.695,13.75-80.734l-26.402-57.375c-4.242-9.227-15.258-13.172-24.34-8.59
		c-8.652,4.363-12.027,15.059-7.949,23.922l-23.926-52c-3.184-6.922-11.516-10.211-18.332-6.918
		c-6.605,3.195-9.453,11.141-6.352,17.883l-10.875-23.645c-3.188-6.918-11.516-10.207-18.332-6.914
		c-6.609,3.191-9.453,11.141-6.352,17.879l5.512,11.984c-3.102-6.742-10.988-9.75-17.711-6.809
		c-6.934,3.031-9.859,11.5-6.672,18.422l5.363,11.656c-3.102-6.738-10.988-9.75-17.711-6.809c-6.934,3.035-9.855,11.5-6.672,18.422
		L68.52,371.198c8.879,19.293,25.117,32.844,43.805,38.816l20.535,44.633C134.527,458.272,138.152,460.596,142.141,460.596z"/>
	<path fill="#FFAE85" d="M76.516,331.623c-2.902,0-5.676-1.656-6.969-4.465l-33.75-73.355c-1.77-3.848-0.086-8.398,3.758-10.168
		c3.848-1.77,8.395-0.086,10.168,3.758l33.75,73.359c1.77,3.844,0.086,8.395-3.758,10.164
		C78.676,331.393,77.586,331.623,76.516,331.623z"/>
	<path fill="#FFAE85" d="M125.582,309.045c-2.902,0-5.676-1.656-6.969-4.465l-33.75-73.355c-1.77-3.844-0.086-8.398,3.758-10.168
		c3.848-1.766,8.398-0.086,10.168,3.762l33.754,73.355c1.766,3.844,0.086,8.398-3.762,10.168
		C127.742,308.819,126.656,309.045,125.582,309.045z"/>
	<path fill="#FFAE85" d="M101.047,320.334c-2.898,0-5.676-1.656-6.965-4.465l-39.266-85.34c-1.77-3.844-0.086-8.398,3.758-10.168
		c3.848-1.766,8.395-0.086,10.168,3.762l39.266,85.34c1.77,3.844,0.086,8.395-3.762,10.164
		C103.211,320.108,102.121,320.334,101.047,320.334z"/>
	<path fill="#FFAE85" d="M157.301,313.373c-2.898,0-5.676-1.656-6.969-4.465l-16.863-36.648c-1.766-3.848-0.086-8.398,3.762-10.168
		s8.395-0.086,10.168,3.758l16.859,36.652c1.77,3.844,0.086,8.395-3.758,10.164C159.461,313.147,158.375,313.373,157.301,313.373z"
		/>
	<g>
		<path fill="#FFDF46" d="M109.191,129.334c-4.215,0-7.641-3.406-7.664-7.625l-0.012-1.91c-0.02-4.23,3.395-7.684,7.625-7.703h0.043
			c4.215,0,7.641,3.402,7.664,7.625l0.012,1.906c0.02,4.234-3.395,7.684-7.625,7.707
			C109.219,129.334,109.207,129.334,109.191,129.334z"/>
		<path fill="#FFDF46" d="M109.254,157.467c-4.215,0-7.645-3.406-7.664-7.629l-0.008-1.906c-0.02-4.234,3.395-7.684,7.629-7.703
			h0.035c4.219,0,7.645,3.41,7.664,7.629l0.012,1.91c0.02,4.23-3.395,7.68-7.629,7.699
			C109.281,157.467,109.266,157.467,109.254,157.467z"/>
		<path fill="#FFDF46" d="M122.332,142.42c-4.215,0-7.641-3.406-7.664-7.625c-0.023-4.234,3.391-7.684,7.625-7.707l1.906-0.008
			h0.043c4.215,0,7.641,3.406,7.664,7.625c0.02,4.234-3.391,7.684-7.625,7.703l-1.91,0.012
			C122.359,142.42,122.344,142.42,122.332,142.42z"/>
		<path fill="#FFDF46" d="M94.199,142.483c-4.215,0-7.645-3.402-7.664-7.625c-0.023-4.23,3.391-7.684,7.625-7.703l1.906-0.012h0.043
			c4.215,0,7.641,3.406,7.664,7.625c0.02,4.234-3.395,7.684-7.625,7.707l-1.91,0.008C94.227,142.483,94.211,142.483,94.199,142.483z
			"/>
		<path fill="#FFDF46" d="M25.234,164.33c-4.215,0-7.641-3.406-7.664-7.625l-0.008-1.91c-0.023-4.23,3.391-7.684,7.625-7.703h0.039
			c4.215,0,7.645,3.402,7.664,7.625l0.012,1.906c0.02,4.234-3.391,7.684-7.625,7.707C25.262,164.33,25.25,164.33,25.234,164.33z"/>
		<path fill="#FFDF46" d="M25.297,192.463c-4.215,0-7.641-3.406-7.664-7.625l-0.008-1.906c-0.023-4.234,3.391-7.684,7.625-7.707
			h0.039c4.215,0,7.645,3.406,7.664,7.625l0.012,1.91c0.023,4.23-3.391,7.684-7.625,7.703
			C25.328,192.463,25.313,192.463,25.297,192.463z"/>
		<path fill="#FFDF46" d="M38.375,177.416c-4.215,0-7.641-3.406-7.664-7.625c-0.02-4.234,3.391-7.684,7.625-7.707l1.91-0.008h0.039
			c4.215,0,7.641,3.406,7.664,7.625c0.023,4.23-3.391,7.684-7.625,7.703l-1.906,0.012C38.402,177.416,38.391,177.416,38.375,177.416
			z"/>
		<path fill="#FFDF46" d="M10.242,177.479c-4.215,0-7.645-3.402-7.664-7.625c-0.023-4.23,3.391-7.684,7.625-7.703l1.906-0.012h0.043
			c4.215,0,7.641,3.406,7.664,7.625c0.02,4.234-3.391,7.684-7.625,7.707l-1.91,0.008C10.27,177.479,10.254,177.479,10.242,177.479z"
			/>
		<path fill="#FFDF46" d="M147.605,164.365c-4.219,0-7.645-3.406-7.664-7.629l-0.012-1.906c-0.02-4.234,3.395-7.684,7.629-7.703
			h0.039c4.215,0,7.645,3.41,7.664,7.629l0.008,1.91c0.02,4.23-3.395,7.68-7.629,7.699
			C147.629,164.365,147.617,164.365,147.605,164.365z"/>
		<path fill="#FFDF46" d="M147.668,192.502c-4.219,0-7.645-3.41-7.664-7.629l-0.008-1.91c-0.023-4.23,3.395-7.68,7.629-7.699h0.035
			c4.219,0,7.645,3.406,7.664,7.629l0.008,1.906c0.023,4.234-3.395,7.684-7.629,7.703
			C147.691,192.502,147.68,192.502,147.668,192.502z"/>
		<path fill="#FFDF46" d="M160.746,177.451c-4.219,0-7.645-3.406-7.664-7.629c-0.023-4.234,3.395-7.68,7.629-7.699l1.906-0.012
			h0.039c4.215,0,7.641,3.41,7.664,7.629c0.02,4.234-3.398,7.684-7.629,7.703l-1.91,0.008
			C160.77,177.451,160.754,177.451,160.746,177.451z"/>
		<path fill="#FFDF46" d="M132.609,177.514c-4.219,0-7.645-3.406-7.664-7.629c-0.02-4.23,3.395-7.68,7.629-7.699l1.91-0.008h0.035
			c4.219,0,7.645,3.406,7.664,7.629c0.02,4.23-3.395,7.68-7.629,7.699l-1.906,0.008
			C132.633,177.514,132.621,177.514,132.609,177.514z"/>
	</g>
</g>
</svg>
