<?xml version="1.0" encoding="utf-8"?>
<!-- Generator: Adobe Illustrator 16.0.0, SVG Export Plug-In . SVG Version: 6.00 Build 0)  -->
<!DOCTYPE svg PUBLIC "-//W3C//DTD SVG 1.1//EN" "http://www.w3.org/Graphics/SVG/1.1/DTD/svg11.dtd">
<svg version="1.1" id="圖層_1" xmlns="http://www.w3.org/2000/svg" xmlns:xlink="http://www.w3.org/1999/xlink" x="0px" y="0px"
	 width="512px" height="512px" viewBox="0 0 512 512" enable-background="new 0 0 512 512" xml:space="preserve">
<g>
	<path fill="#8F4D2E" d="M390.072,269.213l-2.844,25.594l-1.918,17.24h-241.38l-1.918-17.24l-2.844-25.594
		c-2.53-22.777,0.887-45.821,9.914-66.885c7.951-18.564,11.563-38.697,10.56-58.868l-1.498-29.828
		C155.209,54.827,200.5,4.776,259.306,1.841c58.806-2.935,108.856,42.357,111.792,101.163c0.176,3.541,0.176,7.088,0,10.629
		l-1.499,29.828c-1.004,20.169,2.609,40.304,10.561,58.868C389.188,223.391,392.604,246.436,390.072,269.213L390.072,269.213z"/>
	<path fill="#82462A" d="M390.072,269.213l-2.844,25.594h-96.747v-94.829l17.242-34.482V96.531
		c-0.022-42.716-28.574-80.155-69.763-91.477c57.093-14.654,115.257,19.749,129.913,76.841c2.658,10.358,3.744,21.056,3.225,31.737
		l-1.499,29.828c-1.004,20.171,2.609,40.304,10.561,58.868C389.188,223.391,392.604,246.436,390.072,269.213L390.072,269.213z"/>
	<path fill="#FEC9A3" d="M311.172,277.565c-6.662,0.004-12.064-5.395-12.068-12.057c0-0.004,0-0.008,0-0.012V208.6h-68.965v56.896
		c0.003,6.661-5.395,12.064-12.057,12.068c-0.004,0-0.008,0-0.013,0h-13.792v51.724h120.69v-51.724H311.172z"/>
	<path fill="#FEB784" d="M269.819,251.703c10.675-0.118,20.995-3.843,29.284-10.569V208.6h-68.965v32.531
		c8.288,6.727,18.609,10.454,29.284,10.572H269.819z"/>
	<path fill="#FEC9A3" d="M342.206,113.773v43.103c0,42.85-34.735,77.586-77.586,77.586c-42.849,0-77.585-34.737-77.585-77.586
		v-43.103c16.95-11.296,30.657-26.823,39.763-45.043l3.341-6.682l4.893,4.085c21.419,17.849,46.108,31.354,72.693,39.762
		C318.982,109.463,330.515,112.097,342.206,113.773z"/>
	<path fill="#FEC093" d="M342.206,113.773v43.103c-0.008,37.141-26.325,69.072-62.779,76.174
		c18.132-17.797,28.33-42.147,28.297-67.553v-59.602C318.982,109.463,330.515,112.097,342.206,113.773z"/>
	<path fill="#7A432A" d="M225.828,148.255c-7.142,0-12.932-5.79-12.932-12.931s5.79-12.931,12.932-12.931
		c7.141,0,12.931,5.789,12.931,12.931C238.75,142.462,232.966,148.246,225.828,148.255z"/>
	<path fill="#7A432A" d="M303.414,148.255c-7.143,0-12.933-5.79-12.933-12.931s5.79-12.931,12.933-12.931
		c7.14,0,12.93,5.789,12.93,12.931C316.337,142.462,310.552,148.246,303.414,148.255z"/>
	<path fill="#F7A468" d="M264.62,191.358c-14.276-0.017-25.845-11.586-25.861-25.862H256c0,4.76,3.859,8.621,8.62,8.621
		c4.762,0,8.621-3.86,8.621-8.621h17.24C290.467,179.772,278.896,191.342,264.62,191.358z"/>
	<path fill="#E0E0DE" d="M221.517,312.047h86.207v60.345h-86.207V312.047z"/>
	<path fill="#EC8C8C" d="M440.234,501.347c-12.63,2.104-24.927-5.243-29.063-17.36l-56.938-106.821
		c7.37,22.037,2.821,46.317-12.027,64.192v68.966H187.035v-68.966c-15.069-18.088-19.581-42.737-11.897-64.988l-57.867,107.617
		c-4.65,13.676-19.508,20.993-33.184,16.342c-13.514-4.596-20.847-19.176-16.481-32.764l63.297-157.556
		c7.869-19.603,26.872-32.448,47.996-32.444h33.998l51.724,94.827l51.724-94.827h33.869c21.187,0.016,40.225,12.935,48.062,32.617
		l62.573,157.383c4.402,13.768-3.191,28.496-16.959,32.897C442.695,500.845,441.474,501.14,440.234,501.347z"/>
	<path fill="#F59898" d="M60.127,470.464l6.218-80.83h51.724v83.054c0,16.023-12.99,29.015-29.014,29.015
		s-29.013-12.99-29.014-29.013C60.042,471.948,60.071,471.203,60.127,470.464z"/>
	<path fill="#FEC9A3" d="M86.626,263.879c-8.985,2.245-14.448,11.351-12.203,20.335c0.297,1.188,0.723,2.338,1.27,3.433l7.892,15.78
		H52.693c-8.029,0-15.949-1.87-23.131-5.462l-8.59-4.295c-5.11-2.554-11.324-0.481-13.879,4.628C6.374,299.734,6,301.318,6,302.923
		v24.33c0,6.53,3.69,12.499,9.531,15.421l14.031,7.016c7.182,3.591,15.102,5.461,23.131,5.461h65.376v-51.724l-11.805-29.514
		C103.147,266.129,94.76,261.844,86.626,263.879L86.626,263.879z"/>
	<path fill="#E0E0DE" d="M66.345,355.151h51.724v34.483H66.345V355.151z"/>
	<path fill="#E07F7F" d="M440.234,501.347c-12.63,2.104-24.927-5.243-29.063-17.36l-56.938-106.821
		c7.37,22.037,2.821,46.317-12.027,64.192v68.966H189.869c71.153-46.466,131.186-105.432,181.574-228.19
		c12.251,5.505,21.876,15.566,26.832,28.049l62.573,157.383c4.402,13.768-3.191,28.496-16.959,32.897
		C442.695,500.845,441.474,501.14,440.234,501.347z"/>
	<path fill="#A36548" d="M385.311,475.84l-86.207-17.241v-120.69l86.207,17.242V475.84z"/>
	<path fill="#8F4D2E" d="M419.793,475.84L506,458.599v-120.69l-86.207,17.242V475.84z"/>
	<path fill="#95573A" d="M385.311,355.151h34.482V475.84h-34.482V355.151z"/>
	<path fill="#D4BD81" d="M402.552,355.151c0-14.924-10.789-27.66-25.51-30.114l-77.938-12.989v25.861l86.207,17.242H402.552
		c0-14.924,10.788-27.66,25.51-30.114L506,312.047v25.861l-86.207,17.242H402.552z"/>
	<path fill="#FEC9A3" d="M490.176,475.018l-34.483,5.748c-4.695,0.782-9.137-2.39-9.921-7.087c-0.078-0.468-0.116-0.941-0.116-1.417
		v-32.041c0-5.486,3.964-10.166,9.375-11.069l29.28-4.881c6.112-1.021,11.896,3.108,12.916,9.224
		c0.101,0.608,0.153,1.228,0.153,1.848v31.173C497.38,470.728,494.333,474.325,490.176,475.018z"/>
</g>
</svg>
