<?xml version="1.0" encoding="utf-8"?>
<!-- Generator: Adobe Illustrator 16.0.0, SVG Export Plug-In . SVG Version: 6.00 Build 0)  -->
<!DOCTYPE svg PUBLIC "-//W3C//DTD SVG 1.1//EN" "http://www.w3.org/Graphics/SVG/1.1/DTD/svg11.dtd">
<svg version="1.1" id="圖層_1" xmlns="http://www.w3.org/2000/svg" xmlns:xlink="http://www.w3.org/1999/xlink" x="0px" y="0px"
	 width="500px" height="500px" viewBox="0 0 500 500" enable-background="new 0 0 500 500" xml:space="preserve">
<linearGradient id="SVGID_1_" gradientUnits="userSpaceOnUse" x1="500.9915" y1="78.8965" x2="501.2151" y2="78.8965" gradientTransform="matrix(1 0 0 -1 -47.6001 330.04)">
	<stop  offset="0" style="stop-color:#00FFFF;stop-opacity:0.7"/>
	<stop  offset="1" style="stop-color:#FFFF00"/>
</linearGradient>
<path fill="url(#SVGID_1_)" d="M453.615,251.823C453.515,250.629,453.166,249.483,453.615,251.823L453.615,251.823z"/>
<linearGradient id="SVGID_2_" gradientUnits="userSpaceOnUse" x1="322.0344" y1="-35.8457" x2="322.7229" y2="-35.8457" gradientTransform="matrix(1 0 0 -1 -47.6001 330.04)">
	<stop  offset="0" style="stop-color:#00FFFF;stop-opacity:0.7"/>
	<stop  offset="1" style="stop-color:#FFFF00"/>
</linearGradient>
<path fill="url(#SVGID_2_)" d="M275.122,366.507C274.604,365.221,273.873,364.518,275.122,366.507L275.122,366.507z"/>
<linearGradient id="SVGID_3_" gradientUnits="userSpaceOnUse" x1="501.97" y1="75.8418" x2="502.2395" y2="75.8418" gradientTransform="matrix(1 0 0 -1 -47.6001 330.04)">
	<stop  offset="0" style="stop-color:#00FFFF;stop-opacity:0.7"/>
	<stop  offset="1" style="stop-color:#FFFF00"/>
</linearGradient>
<path fill="url(#SVGID_3_)" d="M454.369,253.91c0.385,0.92,0.313,0.594,0.066,0.02C454.413,253.923,454.393,253.917,454.369,253.91z
	"/>
<linearGradient id="SVGID_4_" gradientUnits="userSpaceOnUse" x1="2.440214e-004" y1="250" x2="500.0002" y2="250">
	<stop  offset="0" style="stop-color:#00FFFF;stop-opacity:0.7"/>
	<stop  offset="1" style="stop-color:#FFFF00"/>
</linearGradient>
<path fill="url(#SVGID_4_)" d="M250,0C111.929,0,0,111.929,0,250c0,138.07,111.929,250,250,250c138.07,0,250-111.93,250-250
	C500,111.929,388.071,0,250,0z M334.44,103.755c5.565,0,12.059,0,17.625,0c0-8.349,0-13.914,0-13.914
	c0-18.552,29.684-18.552,29.684,0c0,4.638,0,9.276,0,13.914c5.565,0,11.131,0,16.697,0c18.552,0,18.552,29.684,0,29.684
	c-4.639,0-11.132,0-16.697,0c0,16.697,0,33.395,0,50.091c0,18.553-29.684,18.553-29.684,0c0-12.986,0-32.466,0-50.091
	c-10.204,0-17.625,0-17.625,0C315.887,133.438,315.887,103.755,334.44,103.755z M207.605,316.208
	c-10.658,16.53-26.65,42.534-49.56,40.94c-8.052-0.562-14.813-6.314-14.813-14.813c0-7.649,6.748-15.374,14.813-14.814
	c0.427,0.03,0.739,0.063,0.969,0.098c0.422-0.146,0.936-0.364,1.25-0.496c0.751-0.413,1.488-0.848,2.189-1.343
	c0.129-0.092,0.224-0.157,0.323-0.225c0.084-0.076,0.154-0.14,0.257-0.231c2.129-1.881,4.153-3.876,6.025-6.016
	c1.111-1.268,2.208-2.546,3.254-3.868c0.125-0.157,0.22-0.275,0.313-0.395c0.117-0.163,0.256-0.355,0.449-0.618
	c6.916-9.444,13.264-19.462,19.016-29.65c13.804-24.451,24.583-49.95,31.482-77.428c0.512-2.037,1.018-4.078,1.384-6.146
	c0.139-0.78,0.232-1.242,0.293-1.49c0.013-0.213,0.032-0.463,0.054-0.762c0.114-1.521,0.237-3.049,0.199-4.576
	c-0.006-0.28-0.581-4.935,0.023-1.946c-0.216-1.069-0.427-2.156-0.746-3.206c-0.222-0.509-0.538-1.23-0.696-1.497
	c-0.268-0.452-0.997-1.378-1.196-1.663c-0.137-0.139-0.279-0.273-0.421-0.406c-0.37-0.232-0.736-0.467-1.121-0.675
	c-0.016-0.007-0.023-0.012-0.038-0.02c-0.811-0.252-1.624-0.497-2.46-0.657c-0.004,0-0.006,0-0.01-0.001
	c-1.933-0.106-3.872-0.115-5.8,0.078c-0.061,0.006-0.11,0.011-0.164,0.017c-0.011,0.001-0.019,0.002-0.028,0.004
	c-1.051,0.196-2.104,0.394-3.142,0.646c-2.487,0.604-4.952,1.3-7.362,2.162c-1.044,0.374-2.09,0.748-3.121,1.161
	c-0.136,0.055-0.252,0.101-0.361,0.144c-0.06,0.028-0.116,0.054-0.184,0.083c-3.865,1.76-7.654,3.703-11.282,5.915
	c-1.882,1.147-3.749,2.327-5.546,3.605c-0.211,0.149-0.416,0.304-0.625,0.455c-0.536,0.431-1.349,1.079-1.57,1.274
	c-4.934,4.365-9.562,9.083-13.66,14.249c0.635-0.881,0.417-0.598-0.653,0.849c-0.642,0.864-1.271,1.738-1.89,2.618
	c-0.38,0.548-0.757,1.098-1.133,1.648c0.526,7.473-0.23,15.093-1.752,21.978c-3.898,17.636-13.349,35.709-28.905,45.651
	c-8.118,5.189-19.3,0.102-21.76-8.853c-3.592-13.076,3.002-25.251,8.123-36.873c-0.108,0.228-0.075,0.111,0.342-0.909
	c0.891-2.178,1.802-4.347,2.723-6.513c1.257-2.96,2.546-5.912,3.942-8.811c1.835-3.813,3.77-7.585,5.87-11.264
	c-0.211-0.432-0.415-0.832-0.558-1.059c-0.18-0.286-0.302-0.491-0.398-0.662c-0.078-0.078-0.144-0.142-0.236-0.237
	c-0.38-0.392-0.769-0.775-1.167-1.148c-0.581-0.373-1.169-0.74-1.787-1.049c-0.011-0.005-0.016-0.008-0.026-0.014
	c-1-0.324-2.011-0.618-3.038-0.843c-0.145,0.048-2.854-0.238-3.16-0.239c-1.286-0.005-2.574-0.003-3.858,0.084
	c0.09,0.037-2.958,0.46-3.017,0.474c-1.001,0.223-1.997,0.476-2.985,0.76c-1.242,0.378-2.48,0.773-3.697,1.227
	c-0.164,0.12-2.838,1.307-2.787,1.28c-2.294,1.208-4.557,2.48-6.701,3.942c-3.253,2.217-7.361,5.625-11.228,9.71
	c-1.046,1.106-2.094,2.213-3.091,3.366c2.037-2.357-0.445,0.468-0.715,0.822c-1.273,1.67-2.547,3.341-3.796,5.029
	c-3.1,4.188-6.15,8.427-8.908,12.852c-1.546,2.48-3.064,4.985-4.409,7.582c-0.656,1.267-1.31,2.533-1.897,3.834
	c-0.063,0.14-0.104,0.256-0.157,0.375c-0.746,2.002-1.676,4.034-2.116,6.129c-0.076,0.364-0.374,0.633-0.374,0.83
	c0,0.003,0,0.006,0,0.013c0,0.764,0.122,1.527,0.148,2.293c0.077,8.075-6.728,14.813-14.746,14.813
	c-8.133,0-14.678-6.74-14.755-14.813c-0.031-3.256,0.39-6.622,1.058-9.796c2.555-12.145,9.405-23.446,16.5-33.465
	c7.156-10.104,14.542-20.371,24.258-28.188c20.577-16.552,52.066-27.874,74.982-9.031c0.169,0.138,0.329,0.285,0.493,0.426
	c9.056-10.032,19.652-18.552,32.013-24.505c19.037-9.167,43.712-15.953,61.602-0.661c22.395,19.143,10.106,52.327,2.279,75.421
	C235.438,266.283,223.111,292.155,207.605,316.208z M453.739,266.296c-7.729,0-13.891-5.987-14.717-13.431
	c-0.705-0.198-1.416-0.371-2.133-0.523c-0.929-0.086-2.814-0.29-3.496-0.308c-3.356-0.093-6.716,0.022-10.062,0.335
	c-0.903,0.085-5.079,0.634-4.543,0.529c-1.448,0.223-2.895,0.456-4.336,0.719c-3.653,0.672-7.293,1.421-10.911,2.269
	c-6.766,1.585-13.476,3.4-20.135,5.389c-1.704,0.511-3.399,1.049-5.092,1.596c10.774,27.591,0.41,58.551-7.141,85.852
	c-6.518,23.56-17.919,46.022-37.841,60.905c-9.536,7.126-21.007,11.721-32.775,13.403c-11.538,1.65-25.385,2.181-35.445-4.915
	c-19.486-13.745-18.44-39.674-9.768-59.654c3.544-8.163,9.308-15.819,16.48-21.075c12.359-9.059,26.778-0.534,30.292,12.861
	c2.047,7.805-2.495,16.062-10.346,18.222c-2.749,0.757-5.591,0.639-8.207-0.167c-0.598,1.021-1.168,2.06-1.694,3.116
	c-0.161,0.516-0.321,1.033-0.473,1.545c-0.841,2.852-1.623,5.736-2.122,8.671c-0.045,0.254-0.081,0.46-0.11,0.629
	c-0.002,0.014-0.003,0.021-0.004,0.036c-0.093,1.087-0.188,2.176-0.201,3.266c-0.012,1.032-0.026,2.066,0.048,3.098
	c0.009,0.102,0.014,0.191,0.019,0.276c0.281,0.999,0.947,2.641,1.164,3.296c0.191,0.272,0.361,0.511,0.463,0.662
	c0.02,0.02,0.038,0.036,0.057,0.056c0.035,0.019,0.058,0.029,0.096,0.053c0.218,0.126,0.536,0.276,0.841,0.414
	c1.767,0.438,4.519,1.006,2.914,0.91c2.143,0.183,4.294,0.255,6.444,0.126c0.558-0.034,5.996-0.673,3.111-0.197
	c1.396-0.23,2.797-0.461,4.178-0.78c2.651-0.615,5.293-1.315,7.845-2.277c0.445-0.167,0.755-0.279,0.973-0.354
	c0.105-0.053,0.221-0.108,0.352-0.17c1.165-0.562,2.331-1.124,3.457-1.761c1.906-1.077,3.778-2.218,5.567-3.484
	c0.137-0.154,2.463-1.997,2.791-2.3c0.936-0.854,1.868-1.711,2.752-2.615c1.576-1.616,3.096-3.289,4.522-5.039
	c0.399-0.537,1.202-1.593,1.323-1.769c0.736-1.064,1.472-2.132,2.159-3.229c1.392-2.22,2.729-4.472,3.936-6.798
	c0.815-1.569,1.617-3.146,2.354-4.754c0.104-0.225,1.086-2.531,1.079-2.455c0.856-2.149,1.684-4.31,2.419-6.504
	c1.664-4.959,2.995-10.003,4.408-15.038c3.207-11.427,6.547-22.9,8.299-34.66c0.039-0.265,0.071-0.484,0.101-0.678
	c0.109-0.934,0.211-1.866,0.297-2.801c0.126-1.47,0.254-2.94,0.313-4.413c0.115-2.871,0.174-5.757-0.039-8.626
	c-0.024-0.336-0.529-4.079-0.196-2.291c-0.191-1.103-0.391-2.206-0.673-3.29c-0.333-1.287-0.666-2.578-1.121-3.83
	c-0.088-0.239-0.159-0.439-0.218-0.608c-0.09-0.176-0.198-0.394-0.333-0.669c-0.083-0.167-0.146-0.337-0.223-0.505
	c-4.078,1.373-8.179,2.678-12.325,3.823c-11.532,3.188-23.382,4.846-35.257,2.776c-12.036-2.096-22.828-8.999-30.572-18.332
	c-5.152-6.208-6.104-14.847,0-20.948c5.31-5.311,15.785-6.221,20.948,0c1.733,2.09,3.57,4.126,5.638,5.897
	c0.172,0.062,2.063,1.434,2.217,1.523c0.808,0.471,1.626,0.926,2.458,1.352c0.471,0.156,1.986,0.751,2.266,0.829
	c1.215,0.341,2.434,0.68,3.679,0.896c0.162,0.027,0.301,0.053,0.429,0.076c0.176,0.008,0.39,0.017,0.648,0.029
	c1.276,0.066,2.554,0.131,3.831,0.096c1.297-0.034,2.593-0.072,3.885-0.195c0.493-0.048,0.83-0.074,1.054-0.09
	c0.081-0.015,0.162-0.028,0.254-0.044c2.68-0.467,5.344-1.013,7.973-1.708c5.438-1.438,10.782-3.192,16.079-5.088
	c13.507-4.835,26.981-9.543,40.834-13.299c24.609-6.67,83.204-20.53,84.08,21.329C468.721,259.558,461.687,266.296,453.739,266.296z
	"/>
</svg>
