<?xml version="1.0" encoding="utf-8"?>
<!-- Generator: Adobe Illustrator 16.0.0, SVG Export Plug-In . SVG Version: 6.00 Build 0)  -->
<!DOCTYPE svg PUBLIC "-//W3C//DTD SVG 1.1//EN" "http://www.w3.org/Graphics/SVG/1.1/DTD/svg11.dtd">
<svg version="1.1" id="圖層_1" xmlns="http://www.w3.org/2000/svg" xmlns:xlink="http://www.w3.org/1999/xlink" x="0px" y="0px"
	 width="500px" height="500px" viewBox="0 0 500 500" enable-background="new 0 0 500 500" xml:space="preserve">
<circle fill="none" cx="250" cy="250" r="250"/>
<circle fill="none" stroke="#000000" stroke-width="11" stroke-miterlimit="10" cx="250" cy="250" r="238"/>
<g>
	<g>
		<path d="M230.476,170.274l-28.78,38.892c-13.31,18.611-23.566,27.916-30.768,27.916c-3.342,0-6.309-1.915-8.902-5.747
			c-2.593-3.832-5.244-9.665-7.951-17.501c-2.709-7.835-4.61-13.77-5.704-17.804c-2.478-9.334-4.148-14.634-5.013-15.902
			l-4.408,22.471c-1.383,7.26-2.795,13.929-4.235,20.007c-1.441,6.08-3.011,13.383-4.71,21.909
			c-1.7,8.527-2.752,14.951-3.154,19.273c-0.116,1.44-1.484,2.994-4.105,4.666c-2.622,1.671-4.624,2.507-6.006,2.507
			c-2.766,0-5.345-1.282-7.735-3.846c-2.392-2.563-3.587-5.026-3.587-7.39c0-5.531,1.152-12.56,3.457-21.088
			c9.507-34.916,14.937-56.896,16.291-65.943c1.354-9.045,2.031-16.564,2.031-22.557c0-3.111,1.353-5.501,4.062-7.173
			c2.708-1.67,6.251-2.506,10.63-2.506c2.362,0,4.724,1.556,7.087,4.667c2.362,3.111,3.917,5.993,4.667,8.643l-0.086-0.173
			l12.013,33.62c4.782,13.426,7.979,21.952,9.593,25.582c6.223-6.741,15.44-18.465,27.656-35.175
			c12.214-16.65,20.569-27.367,25.063-32.15c4.494-4.782,7.663-7.173,9.508-7.173c2.822,0,5.963,1.182,9.42,3.543
			c3.457,2.363,5.186,4.379,5.186,6.05c0,1.268-1.123,9.939-3.371,26.014c-1.555,11.352-2.968,24.056-4.234,38.114
			c-1.268,14.059-1.901,22.356-1.901,24.891c0,3.111,0.402,6.309,1.21,9.593c0.575,2.536,0.864,4.926,0.864,7.173
			c0,5.704-0.994,9.593-2.981,11.667c-1.988,2.074-5.057,3.111-9.205,3.111c-7.548,0-11.321-5.674-11.321-17.025
			c0-10.717,0.979-23.811,2.938-39.28c1.958-15.471,3.745-27.354,5.358-35.651C229.927,173.501,230.302,171.427,230.476,170.274z"/>
	</g>
	<g>
		<path d="M328.752,267.639c1.785,0,3.385,0.635,4.797,1.902s2.117,2.679,2.117,4.234c0,14.117-1.656,32.914-4.969,56.393
			c-3.314,23.479-8.629,40.866-15.945,52.158c-7.318,11.293-17.199,16.939-29.645,16.939c-9.507,0-19.402-3.485-29.688-10.457
			c-10.284-6.971-15.427-12.878-15.427-17.718c0-5.069,2.852-7.605,8.556-7.605c1.785,0,4.292,1.585,7.519,4.753
			c10.601,10.66,20.367,15.989,29.299,15.989c7.777,0,14.072-4.162,18.884-12.489c4.81-8.324,8.686-22.268,11.624-41.83
			c2.938-19.561,4.408-37.926,4.408-55.096c0-1.785,0.95-3.428,2.852-4.926S326.908,267.639,328.752,267.639z"/>
	</g>
</g>
<path d="M419,200c-8.333,0-16.667,0-25,0c0-6.667,0-13.333,0-20c0-7-11-7-11,0c0,0,0,8.178,0,20c-8,0-16,0-24,0c-7,0-7,10,0,10
	c0,0,10.811,0,24,0c0,19.422,0,43.984,0,60c0,7,11,7,11,0c0-20,0-40,0-60c9.073,0,18.194,0,25,0C425,210,425,200,419,200z"/>
</svg>
