<?xml version="1.0" encoding="utf-8"?>
<!-- Generator: Adobe Illustrator 16.0.0, SVG Export Plug-In . SVG Version: 6.00 Build 0)  -->
<!DOCTYPE svg PUBLIC "-//W3C//DTD SVG 1.1//EN" "http://www.w3.org/Graphics/SVG/1.1/DTD/svg11.dtd">
<svg version="1.1" id="圖層_1" xmlns="http://www.w3.org/2000/svg" xmlns:xlink="http://www.w3.org/1999/xlink" x="0px" y="0px"
	 width="500px" height="500px" viewBox="0 0 500 500" enable-background="new 0 0 500 500" xml:space="preserve">
<circle fill="none" cx="250" cy="250" r="250"/>
<g>
	<g>
		<linearGradient id="SVGID_1_" gradientUnits="userSpaceOnUse" x1="14.4189" y1="257.0859" x2="255.4814" y2="257.0859">
			<stop  offset="0" style="stop-color:#00FFFF;stop-opacity:0.7"/>
			<stop  offset="1" style="stop-color:#FFFF00"/>
		</linearGradient>
		<path fill="url(#SVGID_1_)" d="M241.722,157.682c-19.285-16.485-45.886-9.17-66.408,0.713
			c-13.326,6.417-24.747,15.602-34.51,26.417c-0.178-0.152-0.348-0.31-0.529-0.459c-24.704-20.313-58.646-8.107-80.829,9.736
			c-10.475,8.427-18.429,19.495-26.144,30.388c-7.649,10.801-15.018,22.984-17.772,36.077c-0.72,3.422-1.143,7.051-1.109,10.56
			c0.083,8.704,7.201,15.969,15.969,15.969c8.642,0,15.854-7.263,15.771-15.969c-0.028-0.824-0.16-1.648-0.16-2.473
			c0-0.006,0-0.009,0-0.013c0-0.212,0.321-0.502,0.403-0.895c0.475-2.258,1.354-4.449,2.157-6.607
			c0.058-0.128,0.164-0.253,0.232-0.405c0.632-1.401,1.37-2.767,2.077-4.132c1.449-2.8,3.102-5.5,4.769-8.174
			c2.972-4.77,6.268-9.339,9.61-13.854c1.347-1.82,2.725-3.621,4.097-5.422c0.291-0.382,2.969-3.427,0.772-0.886
			c1.075-1.243,2.205-2.437,3.333-3.629c4.169-4.404,8.598-8.078,12.105-10.468c2.312-1.576,4.752-2.947,7.225-4.25
			c-0.055,0.029,2.828-1.251,3.004-1.38c1.312-0.489,2.647-0.916,3.986-1.323c1.064-0.306,2.137-0.579,3.218-0.819
			c0.064-0.015,3.348-0.471,3.251-0.511c1.384-0.094,2.774-0.096,4.16-0.091c0.33,0.001,3.25,0.31,3.406,0.258
			c1.107,0.243,2.197,0.559,3.275,0.908c0.011,0.006,0.017,0.009,0.029,0.015c0.667,0.333,1.299,0.729,1.925,1.131
			c0.43,0.401,0.849,0.815,1.259,1.237c0.101,0.103,0.171,0.172,0.255,0.256c0.104,0.185,0.234,0.406,0.429,0.714
			c0.154,0.244,0.375,0.676,0.601,1.141c-2.262,3.965-4.347,8.032-6.327,12.143c-1.505,3.125-2.894,6.306-4.25,9.498
			c-0.993,2.335-1.974,4.673-2.935,7.021c-0.45,1.101-0.486,1.225-0.369,0.98c-5.52,12.53-12.627,25.655-8.756,39.75
			c2.652,9.654,14.708,15.138,23.458,9.544c16.769-10.719,26.958-30.202,31.16-49.214c1.64-7.422,2.456-15.636,1.888-23.693
			c0.406-0.593,0.813-1.185,1.222-1.776c0.667-0.95,1.346-1.891,2.037-2.823c1.154-1.56,1.389-1.865,0.704-0.915
			c4.418-5.569,9.407-10.655,14.726-15.361c0.238-0.211,1.114-0.909,1.692-1.374c0.226-0.162,0.448-0.329,0.674-0.49
			c1.938-1.378,3.949-2.649,5.979-3.887c3.911-2.385,7.995-4.479,12.162-6.376c0.072-0.033,0.133-0.061,0.198-0.09
			c0.117-0.046,0.243-0.096,0.39-0.155c1.111-0.445,2.238-0.85,3.364-1.252c2.599-0.929,5.255-1.68,7.936-2.331
			c1.12-0.272,2.253-0.485,3.387-0.696c0.011-0.002,0.019-0.003,0.03-0.005c0.059-0.006,0.112-0.011,0.177-0.018
			c2.08-0.208,4.169-0.199,6.253-0.084c0.004,0,0.006,0.001,0.011,0.002c0.901,0.173,1.778,0.437,2.652,0.708
			c0.016,0.008,0.024,0.013,0.041,0.021c0.414,0.224,0.81,0.476,1.208,0.727c0.153,0.144,0.307,0.288,0.454,0.438
			c0.215,0.307,1,1.306,1.289,1.793c0.17,0.287,0.511,1.064,0.75,1.613c0.343,1.132,0.572,2.304,0.805,3.456
			c-0.651-3.223-0.032,1.795-0.025,2.098c0.041,1.646-0.092,3.293-0.215,4.933c-0.025,0.322-0.043,0.592-0.059,0.821
			c-0.066,0.268-0.166,0.766-0.315,1.606c-0.395,2.229-0.941,4.431-1.492,6.626c-7.438,29.622-19.059,57.11-33.939,83.47
			c-6.201,10.982-13.043,21.782-20.5,31.964c-0.208,0.284-0.357,0.491-0.483,0.666c-0.102,0.128-0.204,0.256-0.338,0.425
			c-1.128,1.426-2.312,2.804-3.508,4.171c-2.018,2.307-4.2,4.457-6.495,6.485c-0.111,0.099-0.187,0.168-0.277,0.249
			c-0.108,0.073-0.209,0.144-0.349,0.242c-0.756,0.534-1.551,1.002-2.36,1.448c-0.339,0.143-0.894,0.377-1.348,0.535
			c-0.248-0.037-0.585-0.073-1.045-0.105c-8.693-0.604-15.969,7.723-15.969,15.97c0,9.162,7.289,15.363,15.969,15.969
			c24.696,1.719,41.938-26.314,53.427-44.135c16.718-25.931,30.006-53.82,39.91-83.042
			C252.615,214.092,265.863,178.318,241.722,157.682z"/>
	</g>
	<g>
		<linearGradient id="SVGID_2_" gradientUnits="userSpaceOnUse" x1="249.3359" y1="329.666" x2="485.5811" y2="329.666">
			<stop  offset="0" style="stop-color:#00FFFF;stop-opacity:0.7"/>
			<stop  offset="1" style="stop-color:#FFFF00"/>
		</linearGradient>
		<path fill="url(#SVGID_2_)" d="M394.938,229.262c-14.934,4.049-29.46,9.124-44.021,14.336c-5.71,2.044-11.47,3.935-17.334,5.485
			c-2.834,0.75-5.706,1.338-8.594,1.841c-0.1,0.017-0.187,0.033-0.274,0.048c-0.241,0.016-0.604,0.045-1.136,0.096
			c-1.392,0.133-2.789,0.175-4.187,0.212c-1.378,0.037-2.755-0.032-4.131-0.104c-0.278-0.015-0.509-0.024-0.699-0.031
			c-0.138-0.025-0.287-0.053-0.462-0.083c-1.342-0.233-2.656-0.599-3.966-0.965c-0.302-0.084-1.935-0.726-2.442-0.894
			c-0.897-0.459-1.78-0.95-2.65-1.457c-0.166-0.097-2.204-1.576-2.389-1.642c-2.229-1.91-4.209-4.104-6.079-6.358
			c-5.565-6.706-16.858-5.725-22.583,0c-6.579,6.578-5.553,15.891,0,22.583c8.349,10.062,19.984,17.503,32.959,19.763
			c12.801,2.229,25.576,0.443,38.007-2.993c4.471-1.235,8.891-2.642,13.288-4.123c0.082,0.182,0.151,0.365,0.24,0.545
			c0.146,0.298,0.263,0.531,0.359,0.721c0.063,0.183,0.141,0.398,0.235,0.657c0.49,1.349,0.849,2.741,1.208,4.128
			c0.304,1.169,0.519,2.358,0.725,3.548c-0.358-1.93,0.186,2.106,0.212,2.469c0.229,3.093,0.166,6.203,0.042,9.299
			c-0.063,1.588-0.202,3.173-0.338,4.756c-0.094,1.009-0.202,2.014-0.32,3.02c-0.031,0.21-0.066,0.446-0.108,0.73
			c-1.89,12.68-5.489,25.047-8.947,37.366c-1.522,5.428-2.958,10.865-4.752,16.212c-0.793,2.365-1.685,4.693-2.607,7.01
			c0.007-0.081-1.052,2.405-1.163,2.647c-0.794,1.734-1.659,3.433-2.537,5.125c-1.301,2.508-2.744,4.937-4.244,7.329
			c-0.741,1.184-1.534,2.334-2.327,3.481c-0.131,0.19-0.996,1.328-1.427,1.907c-1.538,1.887-3.176,3.689-4.875,5.431
			c-0.953,0.977-1.959,1.9-2.966,2.821c-0.354,0.325-2.862,2.313-3.01,2.478c-1.928,1.365-3.946,2.596-6.001,3.757
			c-1.214,0.687-2.472,1.293-3.728,1.897c-0.14,0.066-0.264,0.127-0.379,0.184c-0.233,0.08-0.568,0.201-1.047,0.381
			c-2.751,1.037-5.599,1.792-8.457,2.455c-1.489,0.345-2.999,0.593-4.505,0.841c3.11-0.513-2.753,0.177-3.354,0.213
			c-2.317,0.14-4.638,0.062-6.947-0.136c1.73,0.103-1.236-0.51-3.141-0.981c-0.329-0.148-0.672-0.312-0.907-0.447
			c-0.041-0.023-0.064-0.035-0.103-0.057c-0.02-0.02-0.04-0.039-0.061-0.059c-0.11-0.163-0.293-0.42-0.499-0.714
			c-0.234-0.706-0.951-2.477-1.255-3.552c-0.005-0.092-0.011-0.189-0.02-0.3c-0.08-1.11-0.063-2.226-0.051-3.338
			c0.014-1.176,0.117-2.35,0.216-3.521c0.001-0.015,0.002-0.024,0.004-0.039c0.033-0.182,0.072-0.403,0.119-0.677
			c0.539-3.164,1.382-6.273,2.289-9.348c0.163-0.552,0.335-1.11,0.508-1.665c0.568-1.141,1.184-2.26,1.827-3.36
			c2.82,0.867,5.884,0.996,8.848,0.18c8.463-2.328,13.36-11.229,11.153-19.644c-3.787-14.44-19.333-23.63-32.656-13.865
			c-7.731,5.666-13.945,13.92-17.766,22.72c-9.35,21.54-10.477,49.491,10.53,64.31c10.845,7.648,25.771,7.078,38.211,5.298
			c12.687-1.814,25.053-6.768,35.333-14.449c21.477-16.045,33.767-40.259,40.793-65.658c8.142-29.432,19.314-62.807,7.698-92.551
			c1.825-0.59,3.653-1.17,5.49-1.72c7.178-2.143,14.412-4.1,21.706-5.809c3.899-0.914,7.822-1.723,11.761-2.445
			c1.555-0.284,3.114-0.535,4.675-0.776c-0.577,0.113,3.925-0.479,4.898-0.57c3.605-0.337,7.228-0.461,10.846-0.361
			c0.734,0.02,2.768,0.239,3.769,0.331c0.772,0.164,1.539,0.352,2.3,0.564c0.891,8.025,7.533,14.479,15.865,14.479
			c8.567,0,16.15-7.264,15.969-15.969C484.635,207.129,421.468,222.07,394.938,229.262z M275.122,366.507
			C273.873,364.517,274.604,365.22,275.122,366.507L275.122,366.507z M453.615,251.823
			C453.167,249.483,453.515,250.629,453.615,251.823L453.615,251.823z M454.37,253.91c0.022,0.007,0.044,0.013,0.066,0.02
			C454.684,254.504,454.754,254.83,454.37,253.91z"/>
	</g>
	<g>
		<linearGradient id="SVGID_3_" gradientUnits="userSpaceOnUse" x1="326" y1="128.5" x2="425" y2="128.5">
			<stop  offset="0" style="stop-color:#00FFFF;stop-opacity:0.7"/>
			<stop  offset="1" style="stop-color:#FFFF00"/>
		</linearGradient>
		<path fill="url(#SVGID_3_)" d="M410,93c-6,0-12,0-18,0c0-5,0-10,0-15c0-20-32-20-32,0c0,0,0,6,0,15c-6,0-13,0-19,0
			c-20,0-20,32,0,32c0,0,8,0,19,0c0,19,0,40,0,54c0,20,32,20,32,0c0-18,0-36,0-54c6,0,13,0,18,0C430,125,430,93,410,93z"/>
	</g>
</g>
</svg>
