<?xml version="1.0" encoding="utf-8"?>
<!-- Generator: Adobe Illustrator 16.0.0, SVG Export Plug-In . SVG Version: 6.00 Build 0)  -->
<!DOCTYPE svg PUBLIC "-//W3C//DTD SVG 1.1//EN" "http://www.w3.org/Graphics/SVG/1.1/DTD/svg11.dtd">
<svg version="1.1" id="圖層_1" xmlns="http://www.w3.org/2000/svg" xmlns:xlink="http://www.w3.org/1999/xlink" x="0px" y="0px"
	 width="1920px" height="334px" viewBox="0 0 1920 334" enable-background="new 0 0 1920 334" xml:space="preserve">
<symbol  id="star" viewBox="-2 -2 4 4">
	<path opacity="0.88" fill="#FFFFFF" d="M-2,0c0,1.104,0.896,2,2,2s2-0.896,2-2S1.104-2,0-2S-2-1.104-2,0z"/>
	<polygon display="none" fill="none" points="-2,2 2,2 2,-2 -2,-2 	"/>
</symbol>
<g>
	
		<use xlink:href="#star"  width="4" height="4" x="-2" y="-2" transform="matrix(1.4253 0 0 -1.4253 131.4438 64.4502)" overflow="visible" opacity="0.9452"/>
	
		<use xlink:href="#star"  width="4" height="4" x="-2" y="-2" transform="matrix(1.4206 0 0 -1.4206 120.4795 66.6294)" overflow="visible" opacity="0.9139"/>
	
		<use xlink:href="#star"  width="4" height="4" x="-2" y="-2" transform="matrix(2.1101 0 0 -2.1101 119.1899 122.6807)" overflow="visible" opacity="0.8679"/>
	
		<use xlink:href="#star"  width="4" height="4" x="-2" y="-2" transform="matrix(2.2357 0 0 -2.2357 121.5229 151.2925)" overflow="visible" opacity="0.9091"/>
	
		<use xlink:href="#star"  width="4" height="4" x="-2" y="-2" transform="matrix(1.9612 0 0 -1.9612 207.2925 152.6899)" overflow="visible"/>
	
		<use xlink:href="#star"  width="4" height="4" x="-2" y="-2" transform="matrix(1.6701 0 0 -1.6701 140.3535 239.0234)" overflow="visible"/>
	
		<use xlink:href="#star"  width="4" height="4" x="-2" y="-2" transform="matrix(1.0407 0 0 -1.0407 283.3496 211.8936)" overflow="visible"/>
	<use xlink:href="#star"  width="4" height="4" x="-2" y="-2" transform="matrix(1 0 0 -1 205 59)" overflow="visible"/>
	<use xlink:href="#star"  width="4" height="4" x="-2" y="-2" transform="matrix(1 0 0 -1 193 14)" overflow="visible"/>
	
		<use xlink:href="#star"  width="4" height="4" x="-2" y="-2" transform="matrix(1.5527 0 0 -1.5527 60.0371 39.8989)" overflow="visible" opacity="0.9099"/>
	
		<use xlink:href="#star"  width="4" height="4" x="-2" y="-2" transform="matrix(1.6564 0 0 -1.6564 55.5522 46.835)" overflow="visible" opacity="0.89"/>
	<use xlink:href="#star"  width="4" height="4" x="-2" y="-2" transform="matrix(1 0 0 -1 217 55)" overflow="visible"/>
	
		<use xlink:href="#star"  width="4" height="4" x="-2" y="-2" transform="matrix(1.3303 0 0 -1.3303 332.9268 63.3125)" overflow="visible"/>
	
		<use xlink:href="#star"  width="4" height="4" x="-2" y="-2" transform="matrix(1.2511 0 0 -1.2511 386.6514 62.3081)" overflow="visible"/>
	
		<use xlink:href="#star"  width="4" height="4" x="-2" y="-2" transform="matrix(1.362 0 0 -1.362 461.5767 66.7354)" overflow="visible" opacity="0.6462"/>
	
		<use xlink:href="#star"  width="4" height="4" x="-2" y="-2" transform="matrix(1.0577 0 0 -1.0577 534.624 80.8408)" overflow="visible" opacity="0.5398"/>
	
		<use xlink:href="#star"  width="4" height="4" x="-2" y="-2" transform="matrix(1.0424 0 0 -1.0424 300.2847 150.2388)" overflow="visible"/>
	
		<use xlink:href="#star"  width="4" height="4" x="-2" y="-2" transform="matrix(1.0399 0 0 -1.0399 313.6675 159.0493)" overflow="visible"/>
	
		<use xlink:href="#star"  width="4" height="4" x="-2" y="-2" transform="matrix(1.0517 0 0 -1.0517 482.5576 134.5234)" overflow="visible" opacity="0.7116"/>
	
		<use xlink:href="#star"  width="4" height="4" x="-2" y="-2" transform="matrix(1.1493 0 0 -1.1493 507.7749 111.9883)" overflow="visible" opacity="0.5571"/>
	
		<use xlink:href="#star"  width="4" height="4" x="-2" y="-2" transform="matrix(1.0208 0 0 -1.0208 546.5913 85.8657)" overflow="visible" opacity="0.6024"/>
	<use xlink:href="#star"  width="4" height="4" x="-2" y="-2" transform="matrix(1 0 0 -1 610 68)" overflow="visible"/>
	
		<use xlink:href="#star"  width="4" height="4" x="-2" y="-2" transform="matrix(1.4631 0 0 -1.4631 492.9131 24.7666)" overflow="visible" opacity="0.7063"/>
	
		<use xlink:href="#star"  width="4" height="4" x="-2" y="-2" transform="matrix(1.1986 0 0 -1.1986 402.9014 29.3853)" overflow="visible"/>
	
		<use xlink:href="#star"  width="4" height="4" x="-2" y="-2" transform="matrix(1.0199 0 0 -1.0199 569.4023 46.3096)" overflow="visible" opacity="0.7904"/>
	
		<use xlink:href="#star"  width="4" height="4" x="-2" y="-2" transform="matrix(1.2118 0 0 -1.2118 851.8628 24.3545)" overflow="visible" opacity="0.7176"/>
	
		<use xlink:href="#star"  width="4" height="4" x="-2" y="-2" transform="matrix(1.1845 0 0 -1.1845 870.2148 29.8027)" overflow="visible" opacity="0.8415"/>
	
		<use xlink:href="#star"  width="4" height="4" x="-2" y="-2" transform="matrix(1.0028 0 0 -1.0028 720.5483 52.6064)" overflow="visible"/>
	<use xlink:href="#star"  width="4" height="4" x="-2" y="-2" transform="matrix(1 0 0 -1 707 76)" overflow="visible"/>
	
		<use xlink:href="#star"  width="4" height="4" x="-2" y="-2" transform="matrix(1.1648 0 0 -1.1648 821.9927 45.6807)" overflow="visible" opacity="0.7117"/>
	
		<use xlink:href="#star"  width="4" height="4" x="-2" y="-2" transform="matrix(1 0 0 -1 986 12)" overflow="visible" opacity="0.7805"/>
	<use xlink:href="#star"  width="4" height="4" x="-2" y="-2" transform="matrix(1 0 0 -1 1201 80)" overflow="visible"/>
	
		<use xlink:href="#star"  width="4" height="4" x="-2" y="-2" transform="matrix(1.0797 0 0 -1.0797 1425.1201 112.8916)" overflow="visible"/>
	
		<use xlink:href="#star"  width="4" height="4" x="-2" y="-2" transform="matrix(1.1908 0 0 -1.1908 1579.4111 51.5195)" overflow="visible"/>
	
		<use xlink:href="#star"  width="4" height="4" x="-2" y="-2" transform="matrix(1.7001 0 0 -1.7001 1685.9238 93.9819)" overflow="visible" opacity="0.9972"/>
	
		<use xlink:href="#star"  width="4" height="4" x="-2" y="-2" transform="matrix(1.248 0 0 -1.248 1756.418 208.5537)" overflow="visible"/>
	
		<use xlink:href="#star"  width="4" height="4" x="-2" y="-2" transform="matrix(1.2494 0 0 -1.2494 1692.8057 163.2422)" overflow="visible" opacity="0.6759"/>
	
		<use xlink:href="#star"  width="4" height="4" x="-2" y="-2" transform="matrix(1.2071 0 0 -1.2071 1547.4453 82.5635)" overflow="visible"/>
	
		<use xlink:href="#star"  width="4" height="4" x="-2" y="-2" transform="matrix(1.1399 0 0 -1.1399 1415.9414 89.959)" overflow="visible"/>
	
		<use xlink:href="#star"  width="4" height="4" x="-2" y="-2" transform="matrix(1.5713 0 0 -1.5713 1309.3291 35.3267)" overflow="visible" opacity="0.813"/>
	
		<use xlink:href="#star"  width="4" height="4" x="-2" y="-2" transform="matrix(1.3902 0 0 -1.3902 1282.25 15.7734)" overflow="visible" opacity="0.8935"/>
	
		<use xlink:href="#star"  width="4" height="4" x="-2" y="-2" transform="matrix(1.1415 0 0 -1.1415 1521.4063 28.209)" overflow="visible"/>
	
		<use xlink:href="#star"  width="4" height="4" x="-2" y="-2" transform="matrix(1.3751 0 0 -1.3751 1732.5596 62.1182)" overflow="visible" opacity="0.8818"/>
	
		<use xlink:href="#star"  width="4" height="4" x="-2" y="-2" transform="matrix(1.1588 0 0 -1.1588 1803.626 22.9189)" overflow="visible" opacity="0.8162"/>
	
		<use xlink:href="#star"  width="4" height="4" x="-2" y="-2" transform="matrix(1.5927 0 0 -1.5927 1810.6543 97.8027)" overflow="visible"/>
	
		<use xlink:href="#star"  width="4" height="4" x="-2" y="-2" transform="matrix(2.0949 0 0 -2.0949 1856.0938 127.4512)" overflow="visible"/>
	
		<use xlink:href="#star"  width="4" height="4" x="-2" y="-2" transform="matrix(1.8118 0 0 -1.8118 1879.8936 108.1406)" overflow="visible" opacity="0.9227"/>
	
		<use xlink:href="#star"  width="4" height="4" x="-2" y="-2" transform="matrix(1.1256 0 0 -1.1256 1899.541 212.9668)" overflow="visible" opacity="0.6628"/>
	
		<use xlink:href="#star"  width="4" height="4" x="-2" y="-2" transform="matrix(1.051 0 0 -1.051 1897.9004 241.8838)" overflow="visible" opacity="0.6306"/>
	
		<use xlink:href="#star"  width="4" height="4" x="-2" y="-2" transform="matrix(1.7915 0 0 -1.7915 1871.3291 189.8311)" overflow="visible" opacity="0.7929"/>
	
		<use xlink:href="#star"  width="4" height="4" x="-2" y="-2" transform="matrix(1.2946 0 0 -1.2946 1708.8232 102.1465)" overflow="visible"/>
	
		<use xlink:href="#star"  width="4" height="4" x="-2" y="-2" transform="matrix(1.4806 0 0 -1.4806 1625.8877 112.7056)" overflow="visible" opacity="0.8265"/>
	
		<use xlink:href="#star"  width="4" height="4" x="-2" y="-2" transform="matrix(1.278 0 0 -1.278 1586.2324 122.8022)" overflow="visible" opacity="0.8593"/>
	
		<use xlink:href="#star"  width="4" height="4" x="-2" y="-2" transform="matrix(1.2181 0 0 -1.2181 1550.959 110.1572)" overflow="visible" opacity="0.8423"/>
	
		<use xlink:href="#star"  width="4" height="4" x="-2" y="-2" transform="matrix(2.0284 0 0 -2.0284 1593.1582 194.6689)" overflow="visible" opacity="0.3736"/>
	
		<use xlink:href="#star"  width="4" height="4" x="-2" y="-2" transform="matrix(1.918 0 0 -1.918 1741.1777 245.1846)" overflow="visible"/>
	
		<use xlink:href="#star"  width="4" height="4" x="-2" y="-2" transform="matrix(1.7421 0 0 -1.7421 1814.5176 288.4082)" overflow="visible" opacity="0.7377"/>
	
		<use xlink:href="#star"  width="4" height="4" x="-2" y="-2" transform="matrix(1.0014 0 0 -1.0014 307.1074 166.4072)" overflow="visible"/>
	
		<use xlink:href="#star"  width="4" height="4" x="-2" y="-2" transform="matrix(1.0593 0 0 -1.0593 308.6094 215.1035)" overflow="visible"/>
	
		<use xlink:href="#star"  width="4" height="4" x="-2" y="-2" transform="matrix(1.393 0 0 -1.393 253.6597 268.9785)" overflow="visible"/>
	
		<use xlink:href="#star"  width="4" height="4" x="-2" y="-2" transform="matrix(1.3512 0 0 -1.3512 173.4829 272.7578)" overflow="visible"/>
	
		<use xlink:href="#star"  width="4" height="4" x="-2" y="-2" transform="matrix(1.2375 0 0 -1.2375 98.0381 328.4141)" overflow="visible" opacity="0.8727"/>
	
		<use xlink:href="#star"  width="4" height="4" x="-2" y="-2" transform="matrix(1.2513 0 0 -1.2513 90.0796 328.2363)" overflow="visible" opacity="0.8986"/>
	
		<use xlink:href="#star"  width="4" height="4" x="-2" y="-2" transform="matrix(1.2867 0 0 -1.2867 64.6167 331.1367)" overflow="visible" opacity="0.9858"/>
	
		<use xlink:href="#star"  width="4" height="4" x="-2" y="-2" transform="matrix(1.3782 0 0 -1.3782 47.8394 313.2129)" overflow="visible"/>
	
		<use xlink:href="#star"  width="4" height="4" x="-2" y="-2" transform="matrix(1.2661 0 0 -1.2661 22.0454 277.376)" overflow="visible"/>
	
		<use xlink:href="#star"  width="4" height="4" x="-2" y="-2" transform="matrix(1.2692 0 0 -1.2692 20.7461 263.9316)" overflow="visible"/>
	<use xlink:href="#star"  width="4" height="4" x="-2" y="-2" transform="matrix(1 0 0 -1 1010 77)" overflow="visible"/>
	<use xlink:href="#star"  width="4" height="4" x="-2" y="-2" transform="matrix(1 0 0 -1 1039 56)" overflow="visible"/>
	<use xlink:href="#star"  width="4" height="4" x="-2" y="-2" transform="matrix(1 0 0 -1 1137 39)" overflow="visible"/>
	
		<use xlink:href="#star"  width="4" height="4" x="-2" y="-2" transform="matrix(1 0 0 -1 1454 151)" overflow="visible" opacity="0.6943"/>
	
		<use xlink:href="#star"  width="4" height="4" x="-2" y="-2" transform="matrix(1.2553 0 0 -1.2553 1305.6992 98.0024)" overflow="visible"/>
	
		<use xlink:href="#star"  width="4" height="4" x="-2" y="-2" transform="matrix(1.1318 0 0 -1.1318 1437.4648 2.5537)" overflow="visible" opacity="0.818"/>
	
		<use xlink:href="#star"  width="4" height="4" x="-2" y="-2" transform="matrix(1.1357 0 0 -1.1357 1439.8447 10.3145)" overflow="visible" opacity="0.879"/>
	
		<use xlink:href="#star"  width="4" height="4" x="-2" y="-2" transform="matrix(1.1294 0 0 -1.1294 1671.3105 7.8203)" overflow="visible" opacity="0.7034"/>
	
		<use xlink:href="#star"  width="4" height="4" x="-2" y="-2" transform="matrix(1.0305 0 0 -1.0305 1882.6816 8.8618)" overflow="visible" opacity="0.3831"/>
</g>
</svg>
