<?xml version="1.0" encoding="utf-8"?>
<!-- Generator: Adobe Illustrator 16.0.0, SVG Export Plug-In . SVG Version: 6.00 Build 0)  -->
<!DOCTYPE svg PUBLIC "-//W3C//DTD SVG 1.1//EN" "http://www.w3.org/Graphics/SVG/1.1/DTD/svg11.dtd">
<svg version="1.1" id="flat" xmlns="http://www.w3.org/2000/svg" xmlns:xlink="http://www.w3.org/1999/xlink" x="0px" y="0px"
	 width="512px" height="512px" viewBox="0 0 512 512" enable-background="new 0 0 512 512" xml:space="preserve">
<g>
	<path fill="#E8C8B3" d="M334.574,50.44c17.5-3.94,34.883,7.054,38.824,24.558c3.942,17.499-7.05,34.88-24.549,38.824
		c-17.502,3.94-34.885-7.052-38.827-24.553C306.081,71.77,317.073,54.388,334.574,50.44z"/>
	<path fill="#04957C" d="M290.175,102.065c13.852-3.121,28.374-0.611,40.372,6.977l58.91,37.251l-8.707,35.256l-27.334-10.49
		l-5.139,51.099l-71.298,16.058l10.277-102.201l-36.042,24.768l-7.137-31.689l27.543-18.927
		C277.235,106.312,283.532,103.561,290.175,102.065z"/>
	<path fill="#E8C8B3" d="M439.163,256.116l0.431,1.91c1.413,6.281,0.803,12.848-1.749,18.759l-16.608,38.515l-23.215,53.809
		l-27.335-10.49l18.376-55.664l11.313-34.262l-71.297,16.059c-17.495,3.945-34.876-7.041-38.822-24.534
		c-0.002-0.005-0.002-0.011-0.003-0.016l-5.354-23.766l63.377-14.275l43.179,6.924l22.82,3.663
		C426.572,234.711,436.429,243.969,439.163,256.116z"/>
	<path fill="#E8C8B3" d="M337.001,282.965l-14.846,44.963l-8.498,22.14c-1.317,3.44-3.214,6.629-5.605,9.43l-42.186,49.508
		l-33.207,38.966l-21.196-20.197l64.945-81.22l8.19-27.896l15.36-52.32L337.001,282.965z"/>
	<path fill="#E4E4E2" d="M354.811,388.173c-0.451,4.497,1.946,8.799,6.01,10.777l39.984,19.473l5.522-1.245
		c10.077-2.268,16.404-12.274,14.135-22.352c-0.812-3.602-2.669-6.88-5.343-9.429l-17.098-16.29l-27.335-10.49
		C361.685,365.973,355.973,376.606,354.811,388.173L354.811,388.173z"/>
	<path fill="#E4E4E2" d="M232.659,447.971l5.353,23.766l8.041,15.971c3.026,6.008,0.607,13.332-5.401,16.357
		c-0.889,0.447-1.829,0.783-2.8,1.004l-16.469,3.71l-21.197-20.199l-10.292-23.109c-3.869-8.692-1.442-18.897,5.926-24.914
		l15.642-12.782L232.659,447.971z"/>
	<path fill="#E8C8B3" d="M251.215,160.784l-49.61,38.434c-5.667,4.097-13.452,3.571-18.516-1.253
		c-5.8-5.531-6.018-14.722-0.484-20.521c0.564-0.591,1.177-1.132,1.831-1.622l59.642-46.727L251.215,160.784z"/>
	<path fill="#E8C8B3" d="M389.712,145.958l31.758-42.316c5.497-7.159,15.546-8.949,23.176-4.125
		c8.149,5.155,10.575,15.939,5.42,24.089c-0.182,0.286-0.371,0.566-0.569,0.842l-36.788,51.902
		c-7.045,9.814-20.52,12.436-30.73,5.979c-0.733-0.463-1.087-1.344-0.879-2.188l8.258-33.435
		C389.423,146.434,389.545,146.18,389.712,145.958L389.712,145.958z"/>
	<path fill="#F3AF3E" d="M337.001,282.965l-14.846,44.963l-35.257-8.706l-2.301-0.565l15.361-52.319L337.001,282.965z"/>
	<path fill="#533222" d="M359.472,31.041c-0.32,0.128-0.634,0.267-0.948,0.41c-2.333-17.771-18.631-30.283-36.4-27.95
		c-17.769,2.333-30.282,18.631-27.949,36.402c2.334,17.772,18.632,30.287,36.401,27.952c5.452-0.715,10.63-2.804,15.053-6.07
		c0.115,0.323,0.233,0.645,0.362,0.966c5.031,12.477,19.228,18.512,31.704,13.479c12.478-5.033,18.514-19.227,13.48-31.71
		c-5.032-12.476-19.227-18.514-31.705-13.479H359.472z"/>
	<path fill="#DC4D41" d="M421.237,315.299l-23.215,53.809l-27.335-10.49l18.376-55.664L421.237,315.299z"/>
	<path fill="#DC4D41" d="M265.866,409.005l-33.207,38.966l-21.196-20.197l32.473-40.609l21.196,20.198L265.866,409.005z"/>
	<g>
		<path fill="#AEDEE2" d="M233.942,267.433l-28.549,15.491c-3.942,2.142-8.871,0.68-11.01-3.263
			c-2.14-3.941-0.678-8.871,3.264-11.011l28.548-15.491c3.942-2.141,8.872-0.68,11.01,3.264
			C239.345,260.362,237.884,265.292,233.942,267.433z"/>
		<path fill="#AEDEE2" d="M176.846,298.418l-14.275,7.745c-3.941,2.142-8.873,0.679-11.011-3.264
			c-2.138-3.941-0.677-8.87,3.264-11.011l14.275-7.746c3.942-2.139,8.871-0.677,11.01,3.265
			C182.249,291.349,180.786,296.279,176.846,298.418z"/>
		<path fill="#AEDEE2" d="M156.869,244.585l-42.822,23.238c-3.942,2.141-8.871,0.68-11.01-3.264
			c-2.14-3.94-0.677-8.868,3.264-11.008l42.824-23.24c3.941-2.139,8.871-0.678,11.009,3.263
			C162.273,237.518,160.81,242.445,156.869,244.585z"/>
		<path fill="#AEDEE2" d="M85.497,283.318l-14.274,7.744c-3.941,2.14-8.871,0.679-11.01-3.264c-2.14-3.941-0.678-8.87,3.264-11.011
			l14.273-7.747c3.943-2.137,8.872-0.677,11.011,3.267C90.901,276.247,89.44,281.178,85.497,283.318z"/>
		<path fill="#AEDEE2" d="M221.495,329.622l-42.822,23.24c-3.943,2.139-8.872,0.675-11.011-3.265
			c-2.14-3.943-0.677-8.871,3.265-11.012l42.823-23.239c3.941-2.139,8.871-0.678,11.009,3.264
			C226.899,322.553,225.437,327.484,221.495,329.622z"/>
		<path fill="#AEDEE2" d="M150.125,368.355l-14.275,7.744c-3.942,2.138-8.871,0.678-11.01-3.265
			c-2.14-3.941-0.678-8.869,3.263-11.011l14.275-7.745c3.944-2.138,8.872-0.678,11.01,3.265
			C155.527,361.285,154.066,366.214,150.125,368.355z"/>
	</g>
	<path fill="#FBB540" d="M391.456,229.083l-6.924,43.177l-55.453,12.49c-17.495,3.945-34.876-7.041-38.822-24.534
		c-0.002-0.005-0.002-0.011-0.003-0.016l-5.354-23.766l63.377-14.275L391.456,229.083z"/>
</g>
</svg>
