<?xml version="1.0" encoding="utf-8"?>
<!-- Generator: Adobe Illustrator 16.0.0, SVG Export Plug-In . SVG Version: 6.00 Build 0)  -->
<!DOCTYPE svg PUBLIC "-//W3C//DTD SVG 1.1//EN" "http://www.w3.org/Graphics/SVG/1.1/DTD/svg11.dtd">
<svg version="1.1" id="圖層_1" xmlns="http://www.w3.org/2000/svg" xmlns:xlink="http://www.w3.org/1999/xlink" x="0px" y="0px"
	 width="512px" height="512px" viewBox="0 0 512 512" enable-background="new 0 0 512 512" xml:space="preserve">
<g>
	<path fill="#FFDE55" d="M469.492,160.544l-76.359-11.098c-25.316-3.676-47.195-19.574-58.516-42.512l-28.748-58.244
		c0-0.001,0.002-0.001,0.002-0.002l-5.406-10.949c-18.188-36.852-70.743-36.852-88.931,0l-34.148,69.195
		c-11.32,22.938-33.203,38.836-58.516,42.512l-76.359,11.098c-5.72,0.831-10.956,2.534-15.65,4.926
		c-1.043,0.532-2.06,1.097-3.049,1.695c-0.494,0.299-0.982,0.606-1.462,0.92c-24.996,16.363-31.235,53.728-7.323,77.037
		l55.258,53.859c1.145,1.116,2.25,2.263,3.317,3.438c15.995,17.63,23.084,41.716,19.031,65.351l-13.043,76.051
		c-5.538,32.279,20.338,58.452,49.485,58.075c7.43-0.096,15.074-1.917,22.464-5.802l68.301-35.906
		c22.637-11.906,49.688-11.906,72.329,0l68.297,35.906c36.379,19.125,78.895-11.766,71.945-52.273l-13.043-76.051
		c-4.324-25.211,4.035-50.934,22.352-68.789l55.254-53.859C526.402,216.434,510.164,166.454,469.492,160.544z"/>
	<g>
		<path fill="#57565C" d="M339.094,286.86c-4.27,0-7.727-3.457-7.727-7.727v-12.824c0-4.27,3.457-7.727,7.727-7.727
			c4.266,0,7.727,3.457,7.727,7.727v12.824C346.82,283.403,343.359,286.86,339.094,286.86z"/>
		<path fill="#57565C" d="M172.909,286.86c-4.27,0-7.727-3.457-7.727-7.727v-12.824c0-4.27,3.457-7.727,7.727-7.727
			s7.727,3.457,7.727,7.727v12.824C180.636,283.403,177.179,286.86,172.909,286.86z"/>
		<path fill="#57565C" d="M255.999,294.949c-10,0-20-3.234-28.344-9.707c-3.371-2.613-3.984-7.469-1.367-10.84
			c2.613-3.375,7.469-3.984,10.84-1.371c11.109,8.621,26.634,8.621,37.747,0c3.367-2.613,8.223-2.004,10.84,1.371
			c2.613,3.371,2,8.223-1.371,10.84C276,291.715,266,294.949,255.999,294.949z"/>
	</g>
</g>
</svg>
