<?xml version="1.0" encoding="utf-8"?>
<!-- Generator: Adobe Illustrator 16.0.0, SVG Export Plug-In . SVG Version: 6.00 Build 0)  -->
<!DOCTYPE svg PUBLIC "-//W3C//DTD SVG 1.1//EN" "http://www.w3.org/Graphics/SVG/1.1/DTD/svg11.dtd">
<svg version="1.1" id="圖層_1" xmlns="http://www.w3.org/2000/svg" xmlns:xlink="http://www.w3.org/1999/xlink" x="0px" y="0px"
	 width="512px" height="512px" viewBox="0 0 512 512" enable-background="new 0 0 512 512" xml:space="preserve">
<g>
	<path fill="#FFDE55" d="M450.076,169.231l-69.408-10.091c-23.028-3.348-42.908-17.802-53.211-38.649l-26.121-52.954l0,0
		l-4.909-9.954c-16.543-33.5-64.316-33.5-80.847,0L184.52,120.49c-10.271,20.848-30.181,35.302-53.18,38.649l-69.422,10.091
		c-5.196,0.744-9.955,2.289-14.227,4.471c-0.954,0.485-1.864,1-2.772,1.546c-0.455,0.256-0.88,0.545-1.335,0.833
		c-22.711,14.878-28.394,48.847-6.65,70.028l50.225,48.968c1.045,1.001,2.062,2.06,3.031,3.121
		c14.546,16.031,20.97,37.924,17.303,59.407l-11.864,69.137c-5.046,29.349,18.485,53.135,44.983,52.787
		c6.757-0.076,13.697-1.728,20.423-5.256l62.09-32.651c20.576-10.818,45.166-10.818,65.756,0l62.075,32.651
		c33.075,17.375,71.726-10.712,65.411-47.531l-11.851-69.137c-3.938-22.924,3.666-46.301,20.302-62.528l50.241-48.968
		C501.817,220.033,487.061,174.594,450.076,169.231z"/>
	<path fill="#FFFFFF" d="M371.935,502.815c0,0,0,0-0.002,0c-11.069,0-21.769-2.671-31.8-7.941l-62.085-32.656
		c-6.769-3.558-14.396-5.438-22.05-5.438c-7.651,0-15.273,1.881-22.041,5.44l-62.09,32.648c-9.805,5.147-20.228,7.813-30.995,7.932
		c-0.249,0.004-0.542,0.004-0.835,0.004c-20.167,0-39.276-8.95-52.429-24.558c-12.904-15.313-18.341-35.521-14.915-55.446
		l11.862-69.129c2.468-14.461-1.758-28.988-11.6-39.832c-0.659-0.721-1.316-1.401-1.891-1.951c-0.051-0.049-0.101-0.098-0.151-0.146
		l-50.225-48.97C5.757,248.229-1.669,228.075,0.316,207.49c1.992-20.646,13.399-39.665,30.515-50.877
		c0.101-0.065,0.202-0.131,0.305-0.195l0.202-0.13c0.425-0.274,1.041-0.673,1.819-1.123c1.39-0.828,2.7-1.554,3.993-2.21
		c6.642-3.393,13.881-5.675,21.473-6.761l69.37-10.084c15.437-2.247,28.767-11.931,35.652-25.905l31.067-62.925
		c11.595-23.495,35.08-38.094,61.287-38.094c26.205,0,49.691,14.596,61.295,38.092l31.036,62.917
		c6.907,13.979,20.251,23.672,35.688,25.915l69.408,10.091c25.93,3.761,47.077,21.581,55.178,46.506
		c8.102,24.927,1.472,51.776-17.301,70.069l-50.238,48.968c-11.161,10.885-16.251,26.559-13.61,41.921l11.851,69.146
		c3.417,19.923-2.026,40.135-14.937,55.45C411.21,493.865,392.1,502.815,371.935,502.815z M255.998,410.235
		c15.166,0,30.281,3.729,43.71,10.784l62.083,32.657c3.275,1.721,6.692,2.597,10.144,2.597c6.318,0,12.617-2.996,16.847-8.012
		c2.903-3.449,6.07-9.295,4.647-17.585l-11.85-69.139c-5.234-30.454,4.855-61.531,26.99-83.119l50.246-48.976
		c6.08-5.925,8.145-14.28,5.521-22.351c-2.621-8.068-9.202-13.612-17.6-14.83l-69.417-10.091
		c-30.588-4.447-57.029-23.65-70.727-51.369l-31.039-62.927c-3.753-7.6-11.066-12.146-19.557-12.146
		c-8.486,0-15.793,4.543-19.55,12.151l-31.06,62.912c-13.654,27.709-40.084,46.922-70.695,51.377l-69.428,10.091
		c-2.553,0.365-4.886,1.091-6.989,2.166c-0.424,0.216-0.85,0.455-1.382,0.774c-0.071,0.043-0.143,0.085-0.215,0.127l-0.395,0.254
		c-5.39,3.555-8.99,9.673-9.638,16.378c-0.447,4.637,0.322,11.435,6.527,17.479l50.165,48.909c1.305,1.254,2.623,2.61,4.024,4.143
		c19.58,21.579,27.965,50.36,23.072,79.031l-11.867,69.154c-1.426,8.292,1.733,14.135,4.634,17.575
		c4.225,5.017,10.519,8.009,16.837,8.009l0.269-0.002c3.388-0.039,6.708-0.912,9.917-2.594l62.071-32.642
		C225.717,413.963,240.83,410.235,255.998,410.235z"/>
</g>
</svg>
